<svg width="189" height="44" viewBox="0 0 189 44" fill="none" xmlns="http://www.w3.org/2000/svg">
<g clip-path="url(#clip0_5613_10887)">
<path d="M12.8603 22L8.81926 26.1548L4.73926 22L8.81776 17.8082L12.8603 22ZM22.7393 11.8466L29.6993 18.9999L33.7793 14.8097L22.7393 3.5L11.6993 14.8467L15.7793 19.0369L22.7393 11.8466ZM36.6608 17.8082L32.6183 22L36.6968 26.1918L40.7738 22L36.6608 17.8082ZM22.7393 32.1534L15.7793 24.9631L11.6993 29.1549L22.7393 40.5L33.7793 29.1533L29.6993 24.9631L22.7393 32.1534ZM22.7393 26.1563L26.8178 21.963L22.7393 17.8098L18.6608 22L22.7393 26.1548V26.1563ZM65.6303 26.588V26.5171C65.6303 23.8068 64.2233 22.4332 61.9388 21.5298C63.3443 20.7358 64.5398 19.4331 64.5398 17.1576V17.0867C64.5398 13.9062 62.0438 11.8466 58.0358 11.8466H48.8603V32.118H58.2473C62.7113 32.1534 65.6303 30.2741 65.6303 26.5895V26.588ZM60.2153 17.9177C60.2153 19.4347 59.0198 20.0483 57.0863 20.0483H53.0798V15.7485H57.3683C59.1968 15.7485 60.2153 16.507 60.2153 17.8452V17.9177ZM61.3058 26.0114C61.3058 27.5284 60.1463 28.216 58.2458 28.216H53.0798V23.7698H58.1063C60.3218 23.7698 61.3058 24.6023 61.3058 25.9744V26.0114ZM74.7353 32.1534V11.8466H70.3763V32.118H74.7353V32.1534ZM98.0798 32.1534V11.8466H93.7898V24.3495L84.5438 11.8466H80.5358V32.118H84.8258V19.2543L94.3883 32.1534H98.0783H98.0798ZM122.125 32.1534L113.654 11.7387H109.648L101.174 32.1534H105.64L107.432 27.6009H115.765L117.557 32.1534H122.128H122.125ZM114.215 23.6619H108.977L111.614 17.0867L114.215 23.6619ZM142.834 32.1534V11.8466H138.544V24.3495L129.298 11.8466H125.29V32.118H129.58V19.2543L139.142 32.1534H142.832H142.834ZM165.227 28.865L162.451 26.0114C160.903 27.456 159.532 28.3948 157.247 28.3948C153.872 28.3948 151.517 25.5042 151.517 22.0355V21.9275C151.517 18.4588 153.907 15.6052 157.247 15.6052C159.215 15.6052 160.763 16.4716 162.31 17.8807L165.086 14.5923C163.259 12.75 161.044 11.4488 157.318 11.4488C151.271 11.4488 147.017 16.1818 147.017 21.9275V22C147.017 27.8167 151.34 32.4417 157.142 32.4417C160.939 32.4787 163.189 31.1051 165.227 28.865ZM183.755 32.1534V28.179H173.032V23.9148H182.348V19.9403H173.032V15.821H183.614V11.8466H168.743V32.118H183.755V32.1534Z" fill="#FCD535"/>
</g>
<defs>
<clipPath id="clip0_5613_10887">
<rect width="180" height="37" fill="white" transform="translate(4.73926 3.5)"/>
</clipPath>
</defs>
</svg>
