<svg width="126" height="44" viewBox="0 0 126 44" fill="none" xmlns="http://www.w3.org/2000/svg">
<path d="M30 29.5C34.1421 29.5 37.5 26.1421 37.5 22C37.5 17.8579 34.1421 14.5 30 14.5C25.8579 14.5 22.5 17.8579 22.5 22C22.5 26.1421 25.8579 29.5 30 29.5Z" stroke="#265CFF" stroke-linecap="round" stroke-linejoin="round"/>
<path d="M27.0835 22H32.9168" stroke="#265CFF" stroke-linecap="round" stroke-linejoin="round"/>
<path d="M30 19.0833L30 24.9166" stroke="#265CFF" stroke-linecap="round" stroke-linejoin="round"/>
<path d="M49.1186 27.5V17.3182H52.8473C53.5698 17.3182 54.1681 17.4375 54.642 17.6761C55.116 17.9115 55.4706 18.2313 55.706 18.6357C55.9413 19.0367 56.0589 19.4891 56.0589 19.9929C56.0589 20.4171 55.9811 20.7751 55.8253 21.0668C55.6695 21.3551 55.4607 21.5871 55.1989 21.7628C54.9403 21.9351 54.6553 22.0611 54.3438 22.1406V22.2401C54.6818 22.2566 55.0116 22.366 55.3331 22.5682C55.6579 22.767 55.9264 23.0504 56.1385 23.4183C56.3506 23.7862 56.4567 24.2337 56.4567 24.7607C56.4567 25.281 56.334 25.7483 56.0888 26.1626C55.8468 26.5736 55.4723 26.9001 54.9652 27.142C54.4581 27.3807 53.8101 27.5 53.0213 27.5H49.1186ZM50.6548 26.1825H52.8722C53.608 26.1825 54.1349 26.04 54.4531 25.755C54.7713 25.4699 54.9304 25.1136 54.9304 24.6861C54.9304 24.3646 54.8492 24.0696 54.6868 23.8011C54.5244 23.5327 54.2924 23.3189 53.9908 23.1598C53.6925 23.0007 53.3378 22.9212 52.9268 22.9212H50.6548V26.1825ZM50.6548 21.723H52.7131C53.0578 21.723 53.3677 21.6567 53.6428 21.5241C53.9212 21.3916 54.1416 21.206 54.304 20.9673C54.4697 20.7254 54.5526 20.4403 54.5526 20.1122C54.5526 19.6913 54.4051 19.3383 54.1101 19.0533C53.8151 18.7682 53.3627 18.6257 52.7528 18.6257H50.6548V21.723ZM62.9968 24.3331V19.8636H64.4883V27.5H63.0266V26.1776H62.9471C62.7714 26.5852 62.4897 26.925 62.1019 27.1967C61.7174 27.4652 61.2385 27.5994 60.6651 27.5994C60.1746 27.5994 59.7404 27.4917 59.3626 27.2763C58.988 27.0575 58.6931 26.7344 58.4776 26.3068C58.2655 25.8793 58.1594 25.3506 58.1594 24.7209V19.8636H59.646V24.5419C59.646 25.0623 59.7901 25.4766 60.0785 25.7848C60.3668 26.093 60.7414 26.2472 61.2021 26.2472C61.4805 26.2472 61.7572 26.1776 62.0323 26.0384C62.3107 25.8991 62.5411 25.6887 62.7234 25.407C62.909 25.1252 63.0001 24.7673 62.9968 24.3331ZM67.4252 30.3636C67.2032 30.3636 67.001 30.3454 66.8187 30.3089C66.6364 30.2758 66.5005 30.2393 66.411 30.1996L66.769 28.9815C67.0408 29.0545 67.2827 29.0859 67.4949 29.076C67.707 29.0661 67.8942 28.9865 68.0566 28.8374C68.2224 28.6882 68.3682 28.4446 68.4941 28.1065L68.6781 27.5994L65.8841 19.8636H67.475L69.4089 25.7898H69.4885L71.4224 19.8636H73.0183L69.8713 28.5192C69.7254 28.9169 69.5398 29.2533 69.3145 29.5284C69.0891 29.8068 68.8206 30.0156 68.5091 30.1548C68.1975 30.294 67.8362 30.3636 67.4252 30.3636ZM78.2397 27.5V17.3182H84.6232V18.6406H79.7759V21.7429H84.2901V23.0604H79.7759V26.1776H84.6829V27.5H78.2397ZM86.1731 18.6406V17.3182H94.0531V18.6406H90.8762V27.5H89.345V18.6406H86.1731ZM95.7944 27.5V17.3182H97.3306V21.7429H102.407V17.3182H103.948V27.5H102.407V23.0604H97.3306V27.5H95.7944Z" fill="#265CFF"/>
</svg>
