<svg width="181" height="44" viewBox="0 0 181 44" fill="none" xmlns="http://www.w3.org/2000/svg">
<g clip-path="url(#clip0_5613_10871)">
<mask id="mask0_5613_10871" style="mask-type:luminance" maskUnits="userSpaceOnUse" x="4" y="7" width="173" height="30">
<path d="M176.89 7H4.23926V37H176.89V7Z" fill="white"/>
</mask>
<g mask="url(#mask0_5613_10871)">
<path d="M39.0847 15.3754C32.8127 15.3754 27.9121 20.0068 27.9121 26.2067C27.9121 32.4068 32.6889 36.9985 39.0847 36.9985C45.4805 36.9985 50.3404 32.3275 50.3404 26.1671C50.3404 20.0464 45.5636 15.3754 39.0847 15.3754ZM39.127 32.5303C35.5553 32.5303 32.9381 29.832 32.9381 26.2083C32.9381 22.5435 35.513 19.8467 39.0847 19.8467C42.6987 19.8467 45.3144 22.5846 45.3144 26.2083C45.3144 29.832 42.6987 32.5303 39.127 32.5303ZM51.7102 20.0875H54.8256V36.5975H59.8094V15.7779H51.7102V20.0875ZM15.3696 19.8452C17.9869 19.8452 20.0634 21.4154 20.8517 23.7508H26.127C25.171 18.7582 20.9348 15.3754 15.4119 15.3754C9.13993 15.3754 4.23926 20.0068 4.23926 26.2083C4.23926 32.4098 9.01613 37 15.4119 37C20.811 37 25.1302 33.6172 26.0862 28.5834H20.8517C20.1042 30.9189 18.0276 32.5303 15.4104 32.5303C11.7964 32.5303 9.26373 29.832 9.26373 26.2083C9.26532 22.5435 11.7572 19.8452 15.3696 19.8452ZM146.404 24.1945L142.75 23.6716C141.006 23.4307 139.759 22.8667 139.759 21.5373C139.759 20.0875 141.38 19.3634 143.58 19.3634C145.989 19.3634 147.527 20.3696 147.859 22.0206H152.677C152.136 17.8329 148.813 15.3769 143.706 15.3769C138.43 15.3769 134.942 17.9945 134.942 21.6989C134.942 25.2418 137.227 27.2968 141.836 27.9401L145.491 28.463C147.277 28.7038 148.274 29.3898 148.274 30.678C148.274 32.329 146.53 33.0135 144.121 33.0135C141.171 33.0135 139.51 31.8458 139.261 30.0744H134.36C134.818 34.1416 138.098 37 144.079 37C149.52 37 153.133 34.5837 153.133 30.4356C153.133 26.7312 150.517 24.7982 146.404 24.1945ZM57.3175 7.20123C55.4901 7.20123 54.1192 8.48941 54.1192 10.2608C54.1192 12.0323 55.4887 13.3204 57.3175 13.3204C59.1448 13.3204 60.5163 12.0323 60.5163 10.2608C60.5163 8.48941 59.1448 7.20123 57.3175 7.20123ZM130.456 22.9063C130.456 18.3969 127.633 15.3769 121.652 15.3769C116.004 15.3769 112.847 18.1561 112.224 22.4245H117.166C117.415 20.7736 118.745 19.4046 121.569 19.4046C124.103 19.4046 125.349 20.4915 125.349 21.8209C125.349 23.5527 123.064 23.9948 120.24 24.2768C116.419 24.6792 111.684 25.9674 111.684 30.8C111.684 34.5456 114.551 36.9603 119.119 36.9603C122.691 36.9603 124.934 35.5106 126.056 33.2148C126.222 35.2682 127.8 36.5975 130.002 36.5975H132.909V32.2894H130.458V22.9063H130.456ZM125.556 28.1413C125.556 30.9204 123.064 32.9739 120.031 32.9739C118.162 32.9739 116.584 32.2086 116.584 30.5988C116.584 28.5453 119.118 27.9813 121.444 27.7404C123.686 27.5392 124.932 27.0559 125.556 26.129V28.1413ZM99.0996 15.3754C96.3162 15.3754 93.9906 16.5035 92.3295 18.3954V7H87.3458V36.5975H92.2461V33.8596C93.9072 35.8322 96.2757 37 99.0996 37C105.08 37 109.608 32.4098 109.608 26.2083C109.608 20.0068 104.997 15.3754 99.0996 15.3754ZM98.3522 32.5303C94.7804 32.5303 92.1633 29.832 92.1633 26.2083C92.1633 22.5846 94.8214 19.8467 98.3927 19.8467C102.007 19.8467 104.539 22.545 104.539 26.2083C104.539 29.832 101.924 32.5303 98.3522 32.5303ZM75.4251 15.3754C72.1858 15.3754 70.067 16.6636 68.8213 18.4762V15.7779H63.878V36.596H68.8617V25.2814C68.8617 22.0998 70.9382 19.8452 74.0117 19.8452C76.8781 19.8452 78.663 21.8178 78.663 24.6777V36.5975H83.6467V24.3164C83.6487 19.0799 80.8667 15.3754 75.4251 15.3754ZM176.89 25.5238C176.89 19.5647 172.404 15.3769 166.382 15.3769C159.986 15.3769 155.292 20.0479 155.292 26.2083C155.292 32.6919 160.318 37 166.465 37C171.657 37 175.727 34.0197 176.765 29.7923H171.572C170.825 31.6445 168.997 32.6919 166.547 32.6919C163.348 32.6919 160.939 30.7588 160.399 27.376H176.888V25.5238H176.89ZM160.691 23.9125C161.481 21.0129 163.724 19.6043 166.299 19.6043C169.123 19.6043 171.283 21.1745 171.781 23.9125H160.691Z" fill="#0052FF"/>
</g>
</g>
<defs>
<clipPath id="clip0_5613_10871">
<rect width="173" height="30" fill="white" transform="translate(4.23926 7)"/>
</clipPath>
</defs>
</svg>
