<svg width="40" height="40" viewBox="0 0 40 40" fill="none" xmlns="http://www.w3.org/2000/svg">
<path d="M11.25 15.625H5C4.30964 15.625 3.75 16.1846 3.75 16.875V23.125C3.75 23.8154 4.30964 24.375 5 24.375H11.25C11.9404 24.375 12.5 23.8154 12.5 23.125V16.875C12.5 16.1846 11.9404 15.625 11.25 15.625Z" stroke="#265CFF" stroke-width="1.5" stroke-linecap="round" stroke-linejoin="round"/>
<path d="M33.75 6.25H26.25C25.5596 6.25 25 6.80964 25 7.5V15C25 15.6904 25.5596 16.25 26.25 16.25H33.75C34.4404 16.25 35 15.6904 35 15V7.5C35 6.80964 34.4404 6.25 33.75 6.25Z" stroke="#265CFF" stroke-width="1.5" stroke-linecap="round" stroke-linejoin="round"/>
<path d="M33.75 23.75H26.25C25.5596 23.75 25 24.3096 25 25V32.5C25 33.1904 25.5596 33.75 26.25 33.75H33.75C34.4404 33.75 35 33.1904 35 32.5V25C35 24.3096 34.4404 23.75 33.75 23.75Z" stroke="#265CFF" stroke-width="1.5" stroke-linecap="round" stroke-linejoin="round"/>
<path d="M12.5 20H18.75" stroke="#265CFF" stroke-width="1.5" stroke-linecap="round" stroke-linejoin="round"/>
<path d="M25 28.75H22.5C22.007 28.7521 21.5184 28.6565 21.0625 28.4688C20.6066 28.2811 20.1924 28.0049 19.8438 27.6563C19.4951 27.3077 19.219 26.8934 19.0313 26.4375C18.8436 25.9816 18.748 25.4931 18.75 25V15C18.748 14.507 18.8436 14.0184 19.0313 13.5625C19.219 13.1066 19.4951 12.6924 19.8438 12.3438C20.1924 11.9951 20.6066 11.719 21.0625 11.5313C21.5184 11.3436 22.007 11.248 22.5 11.25H25" stroke="#265CFF" stroke-width="1.5" stroke-linecap="round" stroke-linejoin="round"/>
</svg>
