<svg width="207" height="44" viewBox="0 0 207 44" fill="none" xmlns="http://www.w3.org/2000/svg">
<g clip-path="url(#clip0_5613_10890)">
<path fill-rule="evenodd" clip-rule="evenodd" d="M54.396 31.184C49.9771 31.184 46.7104 27.6918 46.7104 23.4025C46.7104 19.1131 49.9771 15.5353 54.4235 15.5353C57.2395 15.5353 58.9846 16.5868 60.364 18.1207L58.2531 20.4203C57.2109 19.3133 56.1136 18.5464 54.396 18.5464C51.9182 18.5464 50.117 20.7049 50.117 23.3458C50.117 26.0433 51.9457 28.2019 54.5633 28.2019C56.1698 28.2019 57.3519 27.4349 58.4217 26.3279L60.4763 28.3719C59.0133 30.0191 57.2957 31.184 54.396 31.184ZM66.9391 31.184H63.535V15.5642H66.9403V19.2277C67.8691 16.9848 69.5866 15.4497 72.2043 15.5642V19.2H72.0071C69.0237 19.2 66.9391 21.1595 66.9391 25.1353V31.184ZM90.0341 15.5365L82.5075 35.3889H79.0532L80.699 31.1888L74.2506 15.5365H77.8818L82.2804 27.0973L86.5056 15.5365H90.0341ZM100.083 18.5174C97.7746 18.5174 95.7474 20.4203 95.7474 23.3458C95.7474 26.2713 97.7746 28.1729 100.083 28.1729C102.419 28.1729 104.333 26.3279 104.333 23.3458C104.333 20.3914 102.391 18.5174 100.083 18.5174ZM100.87 31.1551C98.4224 31.1551 96.8734 29.9058 95.8311 28.5142V35.3877H92.4246V15.5365H95.8311V18.3474C96.9296 16.7858 98.4786 15.5377 100.87 15.5377C104.389 15.5377 107.796 18.3474 107.796 23.347C107.796 28.3454 104.418 31.1563 100.87 31.1563M115.263 18.802V26.1555C115.263 27.4892 115.934 28.0282 117.091 28.0282H118.428V31.0972H116.097C113.619 31.09 111.857 29.9781 111.857 26.6957V18.802H109.966V15.8512H111.857V11.7319H115.263V15.8512H118.428V18.802H115.263ZM129.201 18.5464C126.469 18.5464 124.724 20.7049 124.724 23.3458C124.724 26.0156 126.61 28.2019 129.257 28.2019C132.014 28.2019 133.76 26.0433 133.76 23.4025C133.76 20.7326 131.874 18.5464 129.201 18.5464ZM129.201 31.184C124.668 31.184 121.318 27.6918 121.318 23.4025C121.318 19.0854 124.696 15.5353 129.257 15.5353C133.817 15.5353 137.167 19.0287 137.167 23.3458C137.167 27.6351 133.788 31.184 129.201 31.184ZM143.4 28.0331V29.7647C143.401 29.7999 143.393 29.8347 143.375 29.8653C143.358 29.8959 143.333 29.9212 143.302 29.9383L141.817 30.8042C141.787 30.822 141.753 30.8314 141.718 30.8314C141.683 30.8314 141.649 30.822 141.619 30.8042L140.13 29.9383C140.1 29.9208 140.075 29.8956 140.057 29.865C140.04 29.8345 140.031 29.7999 140.031 29.7647V28.0331C140.031 27.9631 140.07 27.8968 140.13 27.8594L141.619 26.9936C141.649 26.9758 141.683 26.9664 141.718 26.9664C141.753 26.9664 141.787 26.9758 141.817 26.9936L143.302 27.8594C143.333 27.877 143.358 27.9023 143.375 27.9328C143.392 27.9633 143.4 27.9979 143.4 28.0331ZM169.732 18.5464C167.001 18.5464 165.256 20.7049 165.256 23.3458C165.256 26.0156 167.142 28.2019 169.788 28.2019C172.546 28.2019 174.291 26.0433 174.291 23.4025C174.291 20.7326 172.406 18.5464 169.732 18.5464ZM169.732 31.184C165.2 31.184 161.849 27.6918 161.849 23.4025C161.849 19.0854 165.227 15.5353 169.788 15.5353C174.348 15.5353 177.698 19.0287 177.698 23.3458C177.698 27.6351 174.319 31.184 169.732 31.184ZM153.772 31.1671C149.353 31.0815 146.154 27.5254 146.237 23.2373C146.318 18.9503 149.65 15.4352 154.097 15.522C156.912 15.5763 158.636 16.6604 159.987 18.2208L157.832 20.4794C156.812 19.3519 155.729 18.5645 154.012 18.5307C151.535 18.4825 149.692 20.6048 149.642 23.2457C149.591 25.9445 151.38 28.138 153.996 28.1886C155.602 28.22 156.798 27.4759 157.888 26.3894L159.905 28.4732C158.41 30.0915 156.67 31.2226 153.772 31.1671ZM197.944 15.5365C201.183 15.5365 203.152 17.6082 203.152 21.2717V31.184H199.746V22.3232C199.746 19.938 198.648 18.6597 196.734 18.6597C194.877 18.6597 193.553 19.9657 193.553 22.3799V31.184H190.147V22.2943C190.147 19.9669 189.02 18.6597 187.135 18.6597C185.249 18.6597 183.953 20.0803 183.953 22.41V31.184H180.547V15.5365H183.953V18.1219C184.911 16.787 186.206 15.5365 188.486 15.5365C190.625 15.5365 192.117 16.588 192.905 18.1774C194.117 16.588 195.692 15.5365 197.944 15.5365Z" fill="#03316C"/>
<path fill-rule="evenodd" clip-rule="evenodd" d="M2.23926 12.4674V31.9907L18.912 41.7535L35.5812 31.9907V12.4674L18.912 2.70581L2.23926 12.4674ZM3.70704 31.1345V13.3272L18.912 4.41937L34.1182 13.3272V31.1345L18.912 40.0399L3.70704 31.1345Z" fill="#03316C"/>
<path fill-rule="evenodd" clip-rule="evenodd" d="M25.4454 11.135H12.3453L10.8273 17.9085H27.0244L25.4454 11.135ZM14.6701 27.2311V22.7296L10.7879 20.2274L6.39648 23.5387L12.3824 34.0962H14.7729L17.6009 31.4264V30.0842L14.6701 27.2311Z" fill="#03316C"/>
<path fill-rule="evenodd" clip-rule="evenodd" d="M23.1673 18.9309H14.6821L16.1117 22.715L15.6766 26.9561H18.9098L22.1729 26.9404L21.7665 22.715L23.1673 18.9309Z" fill="#03316C"/>
<path fill-rule="evenodd" clip-rule="evenodd" d="M27.0469 20.197L23.2113 22.7294V27.2309L20.2793 30.0841V31.4262L23.1061 34.0659H25.4679L31.424 23.5385L27.0469 20.197Z" fill="#03316C"/>
</g>
<defs>
<clipPath id="clip0_5613_10890">
<rect width="202" height="41" fill="white" transform="translate(2.23926 1.5)"/>
</clipPath>
</defs>
</svg>
