<svg width="40" height="40" viewBox="0 0 40 40" fill="none" xmlns="http://www.w3.org/2000/svg">
<path d="M20 20V5" stroke="#265CFF" stroke-width="1.5" stroke-linecap="round" stroke-linejoin="round"/>
<path d="M32.9844 12.5L7.01562 27.5" stroke="#265CFF" stroke-width="1.5" stroke-linecap="round" stroke-linejoin="round"/>
<path d="M5.25015 22.75C5.07962 21.8434 4.99591 20.9225 5.00015 20C4.99818 16.8978 5.95909 13.8715 7.75027 11.3386C9.54145 8.80576 12.0746 6.89128 15.0002 5.85938V17.1094L5.25015 22.75Z" stroke="#265CFF" stroke-width="1.5" stroke-linecap="round" stroke-linejoin="round"/>
<path d="M20 5C22.6284 5.0003 25.2105 5.69123 27.4878 7.00359C29.7651 8.31594 31.6576 10.2037 32.9757 12.4776C34.2939 14.7516 34.9913 17.332 34.9983 19.9604C35.0052 22.5888 34.3214 25.1728 33.0153 27.4537C31.7092 29.7346 29.8267 31.6323 27.5564 32.9567C25.2861 34.281 22.7076 34.9856 20.0792 34.9998C17.4509 35.014 14.865 34.3373 12.5805 33.0375C10.296 31.7377 8.39312 29.8604 7.0625 27.5938" stroke="#265CFF" stroke-width="1.5" stroke-linecap="round" stroke-linejoin="round"/>
</svg>
