<svg width="179" height="44" viewBox="0 0 179 44" fill="none" xmlns="http://www.w3.org/2000/svg">
<g clip-path="url(#clip0_5613_10878)">
<path d="M20.7415 9.3999C11.802 9.3999 4.55566 16.5814 4.55566 25.44V32.3138C4.55566 33.5782 5.58977 34.6026 6.8663 34.6026C8.14284 34.6026 9.18452 33.5782 9.18452 32.3138V25.44C9.18452 24.1718 10.2148 23.1475 11.4952 23.1475C12.7717 23.1475 13.8058 24.1718 13.8058 25.44V32.3138C13.8058 33.5782 14.8399 34.6026 16.1164 34.6026C17.3968 34.6026 18.4308 33.5782 18.4308 32.3138V25.44C18.4308 24.1718 19.465 23.1475 20.7415 23.1475C22.0218 23.1475 23.0597 24.1718 23.0597 25.44V32.3138C23.0597 33.5782 24.0939 34.6026 25.3704 34.6026C26.6469 34.6026 27.681 33.5782 27.681 32.3138V25.44C27.681 24.1718 28.7151 23.1475 29.9992 23.1475C31.2757 23.1475 32.3098 24.1718 32.3098 25.44V32.3138C32.3098 33.5782 33.344 34.6026 34.6243 34.6026C35.9008 34.6026 36.935 33.5782 36.935 32.3138V25.44C36.935 16.5814 29.6849 9.3999 20.7415 9.3999Z" fill="#5D45DC"/>
<path d="M40.5693 9.40234H44.6775V20.1032L55.6404 9.40234H61.1028L51.3268 18.7693L61.6506 34.5946H56.1882L48.1885 21.7762L44.6775 25.1409V34.5984H40.5693V9.40234Z" fill="#5D45DC"/>
<path d="M63.8838 9.40283H67.9464V13.7548C68.2773 12.907 69.0952 11.8783 70.3923 10.6613C71.6895 9.44805 73.1882 8.83765 74.881 8.83765C74.9608 8.83765 75.0939 8.84518 75.2842 8.86025C75.4744 8.87533 75.7977 8.90547 76.258 8.95445V13.427C76.0031 13.378 75.771 13.3478 75.5581 13.3328C75.345 13.3177 75.1092 13.3102 74.8582 13.3102C72.7051 13.3102 71.0504 13.9959 69.894 15.3674C68.7376 16.7389 68.1594 18.3177 68.1594 20.1075V34.5988H63.8838V9.40283Z" fill="#5D45DC"/>
<path d="M92.1807 19.3502C93.1621 19.2258 93.8202 18.8189 94.1511 18.1293C94.3413 17.7526 94.4364 17.21 94.4364 16.5016C94.4364 15.0547 93.9191 14.0035 92.8845 13.3479C91.8497 12.696 90.3701 12.3682 88.4415 12.3682C86.2124 12.3682 84.6337 12.9673 83.7018 14.1655C83.1807 14.8287 82.8421 15.8121 82.6823 17.1196H78.692C78.7719 14.0073 79.7875 11.8407 81.739 10.6199C83.6941 9.40288 85.9575 8.79248 88.5366 8.79248C91.5265 8.79248 93.9533 9.35767 95.8172 10.4843C97.6699 11.6146 98.5939 13.3705 98.5939 15.7556V30.2695C98.5939 30.7104 98.6857 31.0608 98.8683 31.3284C99.0464 31.5958 99.4307 31.7277 100.02 31.7277C100.211 31.7277 100.424 31.7164 100.664 31.6939C100.899 31.6712 101.154 31.6336 101.424 31.5883V34.7157C100.758 34.9041 100.253 35.0209 99.9069 35.0698C99.5561 35.1151 99.0846 35.1415 98.4804 35.1415C97.0075 35.1415 95.939 34.6252 95.2733 33.5891C94.9272 33.039 94.6799 32.2627 94.5392 31.2605C93.668 32.3909 92.4203 33.3706 90.7885 34.1995C89.1566 35.0322 87.3611 35.4467 85.3983 35.4467C83.0399 35.4467 81.1113 34.7383 79.6164 33.3216C78.1214 31.9048 77.3721 30.1301 77.3721 28.0012C77.3721 25.669 78.11 23.8603 79.5822 22.5755C81.0543 21.2907 82.9867 20.4994 85.3755 20.2017L92.1807 19.3502ZM83.1807 30.7895C84.0822 31.4941 85.1511 31.8445 86.3873 31.8445C87.8899 31.8445 89.3468 31.5017 90.758 30.8121C93.1317 29.6705 94.3185 27.7978 94.3185 25.1979V21.7918C93.7974 22.1233 93.1241 22.3984 92.3024 22.6169C91.4808 22.8355 90.6744 22.9937 89.887 23.088L87.3041 23.4157C85.7559 23.6192 84.5919 23.9395 83.8121 24.3766C82.4883 25.1113 81.8302 26.2869 81.8302 27.8958C81.8264 29.1241 82.2792 30.0849 83.1807 30.7895Z" fill="#5D45DC"/>
<path d="M108.314 9.40283V20.1037L119.277 9.40283H124.735L114.959 18.7699L125.283 34.595H119.82L111.821 21.7766L108.31 25.1414V34.5988H104.201V9.40283H108.314Z" fill="#5D45DC"/>
<path d="M142.72 10.096C144.405 10.9363 145.687 12.0214 146.566 13.3553C147.415 14.6251 147.981 16.1059 148.266 17.8014C148.518 18.962 148.643 20.812 148.643 23.3515H130.145C130.225 25.9137 130.829 27.971 131.959 29.5196C133.089 31.0682 134.842 31.8444 137.212 31.8444C139.426 31.8444 141.195 31.1134 142.514 29.6478C143.253 28.7962 143.777 27.8127 144.085 26.6937H148.29C148.179 27.6206 147.81 28.6492 147.186 29.7872C146.562 30.925 145.863 31.8519 145.094 32.5754C143.805 33.8301 142.21 34.6779 140.308 35.115C139.289 35.3674 138.132 35.4917 136.843 35.4917C133.697 35.4917 131.031 34.3501 128.844 32.0705C126.657 29.7872 125.564 26.5958 125.564 22.4849C125.564 18.4382 126.664 15.1526 128.87 12.6281C131.072 10.1036 133.952 8.84133 137.509 8.84133C139.296 8.83757 141.035 9.25957 142.72 10.096ZM144.249 19.9906C144.078 18.1556 143.675 16.6899 143.047 15.5934C141.887 13.555 139.947 12.5339 137.231 12.5339C135.284 12.5339 133.652 13.2347 132.335 14.6401C131.015 16.0456 130.319 17.8278 130.239 19.9906H144.249Z" fill="#5D45DC"/>
<path d="M156.459 9.40283V12.9786C157.661 11.5053 158.936 10.4465 160.283 9.80223C161.629 9.15792 163.124 8.83765 164.771 8.83765C168.381 8.83765 170.82 10.0848 172.086 12.5792C172.782 13.9432 173.132 15.8949 173.132 18.4382V34.5988H168.785V18.7208C168.785 17.1836 168.556 15.9439 168.096 15.0057C167.335 13.4383 165.958 12.6545 163.964 12.6545C162.953 12.6545 162.12 12.7563 161.469 12.9597C160.297 13.3064 159.271 13.9959 158.38 15.0283C157.67 15.861 157.205 16.7163 156.992 17.6056C156.779 18.4948 156.673 19.757 156.673 21.4037V34.5988H152.397V9.40283H156.459Z" fill="#5D45DC"/>
</g>
<defs>
<clipPath id="clip0_5613_10878">
<rect width="169" height="27" fill="white" transform="translate(4.55566 8.5)"/>
</clipPath>
</defs>
</svg>
