<svg xmlns="http://www.w3.org/2000/svg" width="153.044" height="32" viewBox="0 0 153.044 32">
  <g id="Group_6" data-name="Group 6" transform="translate(11784 -164)">
    <path id="Path_11874" data-name="Path 11874" d="M4.175-16V0H1.756V-16ZM9.838-7.125V0H7.5V-12H9.744v1.956h.15a3.42,3.42,0,0,1,1.3-1.536,4.021,4.021,0,0,1,2.237-.577,4.337,4.337,0,0,1,2.149.513,3.5,3.5,0,0,1,1.43,1.52,5.462,5.462,0,0,1,.509,2.492V0H15.181V-7.35A2.9,2.9,0,0,0,14.5-9.4a2.414,2.414,0,0,0-1.866-.736,2.916,2.916,0,0,0-1.445.352A2.491,2.491,0,0,0,10.2-8.754,3.416,3.416,0,0,0,9.838-7.125ZM30.475-12,26.119,0h-2.5L19.263-12h2.506l3.037,9.237h.125L27.969-12ZM37.419.244A5.853,5.853,0,0,1,34.366-.52,5.07,5.07,0,0,1,32.4-2.67a7.211,7.211,0,0,1-.69-3.249A7.292,7.292,0,0,1,32.4-9.172a5.3,5.3,0,0,1,1.936-2.2,5.333,5.333,0,0,1,2.917-.789,5.91,5.91,0,0,1,1.974.334,4.733,4.733,0,0,1,1.708,1.054,5,5,0,0,1,1.2,1.866,7.76,7.76,0,0,1,.441,2.777V-5.3H33.025V-7.05h7.25A3.5,3.5,0,0,0,39.9-8.682a2.826,2.826,0,0,0-1.048-1.13,2.975,2.975,0,0,0-1.584-.413,3.048,3.048,0,0,0-1.714.479A3.249,3.249,0,0,0,34.431-8.5a3.633,3.633,0,0,0-.4,1.67v1.362a4.5,4.5,0,0,0,.427,2.047A3.011,3.011,0,0,0,35.65-2.13a3.511,3.511,0,0,0,1.787.442,3.673,3.673,0,0,0,1.216-.191,2.554,2.554,0,0,0,.943-.573,2.524,2.524,0,0,0,.609-.949l2.213.4a4,4,0,0,1-.948,1.705A4.6,4.6,0,0,1,39.757-.16,6.367,6.367,0,0,1,37.419.244ZM54.163-9.069l-2.119.375a2.538,2.538,0,0,0-.417-.773,2.132,2.132,0,0,0-.77-.6,2.768,2.768,0,0,0-1.213-.235,2.917,2.917,0,0,0-1.656.444,1.322,1.322,0,0,0-.663,1.138,1.18,1.18,0,0,0,.446.967,3.686,3.686,0,0,0,1.435.6l1.913.438A5.074,5.074,0,0,1,53.587-5.54,2.784,2.784,0,0,1,54.4-3.469a3.143,3.143,0,0,1-.624,1.92A4.138,4.138,0,0,1,52.049-.234a6.391,6.391,0,0,1-2.555.477A5.754,5.754,0,0,1,46.2-.619a3.629,3.629,0,0,1-1.565-2.456l2.256-.35a2.174,2.174,0,0,0,.873,1.338,2.965,2.965,0,0,0,1.709.449,3.143,3.143,0,0,0,1.837-.481A1.41,1.41,0,0,0,52-3.294a1.24,1.24,0,0,0-.418-.95A2.788,2.788,0,0,0,50.3-4.819l-2.025-.45a4.8,4.8,0,0,1-2.484-1.216,2.941,2.941,0,0,1-.8-2.116,3.032,3.032,0,0,1,.591-1.862,3.891,3.891,0,0,1,1.639-1.247,6.055,6.055,0,0,1,2.4-.448,4.984,4.984,0,0,1,3.062.841A3.948,3.948,0,0,1,54.163-9.069ZM62.563-12v1.875H56.006V-12Zm-4.8-2.875H60.1V-3.522A2.048,2.048,0,0,0,60.3-2.5a1.014,1.014,0,0,0,.528.463,2.044,2.044,0,0,0,.708.12,2.809,2.809,0,0,0,.491-.038q.209-.038.327-.062l.425,1.931A5.416,5.416,0,0,1,62.2.067a4.656,4.656,0,0,1-.935.092,4.1,4.1,0,0,1-1.72-.331,2.966,2.966,0,0,1-1.291-1.063,3.1,3.1,0,0,1-.489-1.806ZM65.575-16h2.931L73.6-3.562h.188L78.881-16h2.931V0h-2.3V-11.575h-.15L74.65-.025H72.738L68.025-11.588h-.15V0h-2.3ZM88.631.262A4.88,4.88,0,0,1,86.57-.16,3.415,3.415,0,0,1,85.113-1.4a3.533,3.533,0,0,1-.538-1.991,3.228,3.228,0,0,1,.392-1.677A2.9,2.9,0,0,1,86.024-6.1a5.473,5.473,0,0,1,1.484-.577,14.929,14.929,0,0,1,1.674-.3l1.746-.21a2.594,2.594,0,0,0,.977-.267.656.656,0,0,0,.308-.61v-.056A2.111,2.111,0,0,0,91.638-9.7a2.346,2.346,0,0,0-1.706-.562,3,3,0,0,0-1.857.516,2.8,2.8,0,0,0-.937,1.152l-2.194-.5a4.242,4.242,0,0,1,1.143-1.77,4.645,4.645,0,0,1,1.738-.984,6.885,6.885,0,0,1,2.069-.309,7.452,7.452,0,0,1,1.528.17,4.626,4.626,0,0,1,1.517.614A3.359,3.359,0,0,1,94.1-10.1a4.431,4.431,0,0,1,.451,2.135V0H92.269V-1.637h-.094a3.305,3.305,0,0,1-.674.886,3.565,3.565,0,0,1-1.164.727A4.549,4.549,0,0,1,88.631.262Zm.506-1.869A3.369,3.369,0,0,0,90.8-1.991a2.728,2.728,0,0,0,1.054-1,2.583,2.583,0,0,0,.364-1.33v-1.55a1.181,1.181,0,0,1-.482.23,7.2,7.2,0,0,1-.806.18q-.452.077-.884.133l-.721.1a6.043,6.043,0,0,0-1.235.291,2.11,2.11,0,0,0-.894.58,1.464,1.464,0,0,0-.334,1A1.492,1.492,0,0,0,87.5-2.05,2.809,2.809,0,0,0,89.138-1.606ZM103.269-12v1.875H96.713V-12Zm-4.8-2.875h2.338V-3.522a2.048,2.048,0,0,0,.2,1.018,1.014,1.014,0,0,0,.528.463,2.044,2.044,0,0,0,.708.12,2.809,2.809,0,0,0,.491-.038q.209-.038.327-.062l.425,1.931a5.416,5.416,0,0,1-.584.158,4.656,4.656,0,0,1-.935.092,4.1,4.1,0,0,1-1.72-.331,2.966,2.966,0,0,1-1.291-1.063,3.1,3.1,0,0,1-.489-1.806ZM110.894.244a5.853,5.853,0,0,1-3.052-.763,5.07,5.07,0,0,1-1.97-2.15,7.211,7.211,0,0,1-.69-3.249,7.292,7.292,0,0,1,.691-3.253,5.3,5.3,0,0,1,1.936-2.2,5.333,5.333,0,0,1,2.917-.789,5.91,5.91,0,0,1,1.974.334,4.733,4.733,0,0,1,1.708,1.054A5,5,0,0,1,115.6-8.9a7.76,7.76,0,0,1,.441,2.777V-5.3H106.5V-7.05h7.25a3.5,3.5,0,0,0-.374-1.632,2.826,2.826,0,0,0-1.048-1.13,2.975,2.975,0,0,0-1.584-.413,3.048,3.048,0,0,0-1.714.479A3.249,3.249,0,0,0,107.906-8.5a3.633,3.633,0,0,0-.4,1.67v1.362a4.5,4.5,0,0,0,.427,2.047,3.011,3.011,0,0,0,1.192,1.286,3.511,3.511,0,0,0,1.787.442,3.673,3.673,0,0,0,1.216-.191,2.554,2.554,0,0,0,.943-.573,2.524,2.524,0,0,0,.609-.949l2.213.4a4,4,0,0,1-.948,1.705A4.6,4.6,0,0,1,113.232-.16,6.367,6.367,0,0,1,110.894.244Z" transform="translate(-11747 188)" fill="#fff"/>
    <g id="diagram" transform="translate(-11784 164)">
      <path id="Path_11875" data-name="Path 11875" d="M13,30A11,11,0,0,1,13,8a1,1,0,0,1,1,1v9h9a1,1,0,0,1,1,1A11,11,0,0,1,13,30Z" fill="#2457ff"/>
      <path id="Path_11876" data-name="Path 11876" d="M28,14H19a2,2,0,0,1-2-2V3a1,1,0,0,1,1-1A11,11,0,0,1,29,13a1,1,0,0,1-1,1Z" fill="#dbe5ff"/>
      <rect id="_Transparent_Rectangle_" data-name="&lt;Transparent Rectangle&gt;" width="32" height="32" fill="none"/>
    </g>
  </g>
</svg>
