<svg width="302" height="87" viewBox="0 0 302 87" fill="none" xmlns="http://www.w3.org/2000/svg">
<path d="M20.8807 32V24.7273H23.3381C23.9086 24.7273 24.375 24.8303 24.7372 25.0362C25.1018 25.2398 25.3717 25.5156 25.5469 25.8636C25.7221 26.2116 25.8097 26.5999 25.8097 27.0284C25.8097 27.4569 25.7221 27.8464 25.5469 28.1967C25.3741 28.5471 25.1065 28.8265 24.7443 29.0348C24.3821 29.2408 23.9181 29.3438 23.3523 29.3438H21.5909V28.5625H23.3239C23.7145 28.5625 24.0282 28.495 24.2649 28.3601C24.5017 28.2251 24.6733 28.0429 24.7798 27.8132C24.8887 27.5812 24.9432 27.3196 24.9432 27.0284C24.9432 26.7372 24.8887 26.4768 24.7798 26.2472C24.6733 26.0175 24.5005 25.8376 24.2614 25.7074C24.0223 25.5748 23.705 25.5085 23.3097 25.5085H21.7614V32H20.8807ZM34.3647 28.3636C34.3647 29.1307 34.2262 29.7936 33.9492 30.3523C33.6722 30.911 33.2923 31.3419 32.8093 31.6449C32.3263 31.9479 31.7747 32.0994 31.1545 32.0994C30.5342 32.0994 29.9826 31.9479 29.4996 31.6449C29.0167 31.3419 28.6367 30.911 28.3597 30.3523C28.0827 29.7936 27.9442 29.1307 27.9442 28.3636C27.9442 27.5966 28.0827 26.9337 28.3597 26.375C28.6367 25.8163 29.0167 25.3854 29.4996 25.0824C29.9826 24.7794 30.5342 24.6278 31.1545 24.6278C31.7747 24.6278 32.3263 24.7794 32.8093 25.0824C33.2923 25.3854 33.6722 25.8163 33.9492 26.375C34.2262 26.9337 34.3647 27.5966 34.3647 28.3636ZM33.5124 28.3636C33.5124 27.7339 33.4071 27.2024 33.1964 26.7692C32.988 26.3359 32.7051 26.008 32.3477 25.7855C31.9925 25.563 31.5948 25.4517 31.1545 25.4517C30.7141 25.4517 30.3152 25.563 29.9577 25.7855C29.6026 26.008 29.3197 26.3359 29.109 26.7692C28.9007 27.2024 28.7965 27.7339 28.7965 28.3636C28.7965 28.9934 28.9007 29.5249 29.109 29.9581C29.3197 30.3913 29.6026 30.7192 29.9577 30.9418C30.3152 31.1643 30.7141 31.2756 31.1545 31.2756C31.5948 31.2756 31.9925 31.1643 32.3477 30.9418C32.7051 30.7192 32.988 30.3913 33.1964 29.9581C33.4071 29.5249 33.5124 28.9934 33.5124 28.3636ZM36.8455 32V24.7273H39.3029C39.8711 24.7273 40.3375 24.8243 40.7021 25.0185C41.0666 25.2102 41.3365 25.4742 41.5117 25.8104C41.6869 26.1465 41.7745 26.5289 41.7745 26.9574C41.7745 27.3859 41.6869 27.7659 41.5117 28.0973C41.3365 28.4287 41.0678 28.6892 40.7056 28.8786C40.3434 29.0656 39.8806 29.1591 39.3171 29.1591H37.3285V28.3636H39.2887C39.677 28.3636 39.9895 28.3068 40.2262 28.1932C40.4653 28.0795 40.6381 27.9186 40.7447 27.7102C40.8536 27.4995 40.908 27.2486 40.908 26.9574C40.908 26.6662 40.8536 26.4117 40.7447 26.1939C40.6358 25.9761 40.4618 25.808 40.2227 25.6896C39.9835 25.5689 39.6675 25.5085 39.2745 25.5085H37.7262V32H36.8455ZM40.2688 28.733L42.0586 32H41.0359L39.2745 28.733H40.2688ZM43.8443 25.5085V24.7273H49.2988V25.5085H47.0119V32H46.1312V25.5085H43.8443ZM51.658 32V24.7273H56.0188V25.5085H52.5387V27.9659H55.6921V28.7472H52.5387V32H51.658ZM64.6635 28.3636C64.6635 29.1307 64.525 29.7936 64.248 30.3523C63.9711 30.911 63.5911 31.3419 63.1081 31.6449C62.6252 31.9479 62.0736 32.0994 61.4533 32.0994C60.833 32.0994 60.2814 31.9479 59.7985 31.6449C59.3155 31.3419 58.9355 30.911 58.6586 30.3523C58.3816 29.7936 58.2431 29.1307 58.2431 28.3636C58.2431 27.5966 58.3816 26.9337 58.6586 26.375C58.9355 25.8163 59.3155 25.3854 59.7985 25.0824C60.2814 24.7794 60.833 24.6278 61.4533 24.6278C62.0736 24.6278 62.6252 24.7794 63.1081 25.0824C63.5911 25.3854 63.9711 25.8163 64.248 26.375C64.525 26.9337 64.6635 27.5966 64.6635 28.3636ZM63.8113 28.3636C63.8113 27.7339 63.7059 27.2024 63.4952 26.7692C63.2869 26.3359 63.004 26.008 62.6465 25.7855C62.2914 25.563 61.8936 25.4517 61.4533 25.4517C61.013 25.4517 60.6141 25.563 60.2566 25.7855C59.9015 26.008 59.6185 26.3359 59.4078 26.7692C59.1995 27.2024 59.0953 27.7339 59.0953 28.3636C59.0953 28.9934 59.1995 29.5249 59.4078 29.9581C59.6185 30.3913 59.9015 30.7192 60.2566 30.9418C60.6141 31.1643 61.013 31.2756 61.4533 31.2756C61.8936 31.2756 62.2914 31.1643 62.6465 30.9418C63.004 30.7192 63.2869 30.3913 63.4952 29.9581C63.7059 29.5249 63.8113 28.9934 63.8113 28.3636ZM67.1444 32V24.7273H68.025V31.2188H71.4057V32H67.1444ZM74.65 24.7273V32H73.7694V24.7273H74.65ZM83.5522 28.3636C83.5522 29.1307 83.4137 29.7936 83.1367 30.3523C82.8597 30.911 82.4798 31.3419 81.9968 31.6449C81.5138 31.9479 80.9622 32.0994 80.342 32.0994C79.7217 32.0994 79.1701 31.9479 78.6871 31.6449C78.2042 31.3419 77.8242 30.911 77.5472 30.3523C77.2702 29.7936 77.1317 29.1307 77.1317 28.3636C77.1317 27.5966 77.2702 26.9337 77.5472 26.375C77.8242 25.8163 78.2042 25.3854 78.6871 25.0824C79.1701 24.7794 79.7217 24.6278 80.342 24.6278C80.9622 24.6278 81.5138 24.7794 81.9968 25.0824C82.4798 25.3854 82.8597 25.8163 83.1367 26.375C83.4137 26.9337 83.5522 27.5966 83.5522 28.3636ZM82.6999 28.3636C82.6999 27.7339 82.5946 27.2024 82.3839 26.7692C82.1755 26.3359 81.8926 26.008 81.5352 25.7855C81.18 25.563 80.7823 25.4517 80.342 25.4517C79.9016 25.4517 79.5027 25.563 79.1452 25.7855C78.7901 26.008 78.5072 26.3359 78.2965 26.7692C78.0882 27.2024 77.984 27.7339 77.984 28.3636C77.984 28.9934 78.0882 29.5249 78.2965 29.9581C78.5072 30.3913 78.7901 30.7192 79.1452 30.9418C79.5027 31.1643 79.9016 31.2756 80.342 31.2756C80.7823 31.2756 81.18 31.1643 81.5352 30.9418C81.8926 30.7192 82.1755 30.3913 82.3839 29.9581C82.5946 29.5249 82.6999 28.9934 82.6999 28.3636Z" fill="#0B2471"/>
<path d="M25.8878 64.3182V46.1364H27.0526V64.3182H25.8878ZM29.5312 51.7756C29.4555 51.1032 29.143 50.5824 28.5938 50.2131C28.0445 49.839 27.3532 49.652 26.5199 49.652C25.9233 49.652 25.4072 49.7467 24.9716 49.9361C24.536 50.1207 24.1974 50.3764 23.956 50.7031C23.7192 51.0251 23.6009 51.392 23.6009 51.804C23.6009 52.1496 23.6813 52.4479 23.8423 52.6989C24.008 52.9498 24.2235 53.1605 24.4886 53.331C24.7585 53.4967 25.0473 53.6364 25.3551 53.75C25.6629 53.8589 25.9588 53.9489 26.2429 54.0199L27.6634 54.3892C28.1274 54.5028 28.6032 54.6567 29.0909 54.8509C29.5786 55.045 30.0308 55.3007 30.4474 55.6179C30.8641 55.9351 31.2003 56.3281 31.456 56.7969C31.7164 57.2656 31.8466 57.8267 31.8466 58.4801C31.8466 59.304 31.6335 60.0355 31.2074 60.6747C30.786 61.3139 30.1728 61.8182 29.3679 62.1875C28.5677 62.5568 27.5994 62.7415 26.4631 62.7415C25.3741 62.7415 24.4318 62.5687 23.6364 62.223C22.8409 61.8774 22.2183 61.3873 21.7685 60.7528C21.3187 60.1136 21.0701 59.3561 21.0227 58.4801H23.2244C23.267 59.0057 23.4375 59.4437 23.7358 59.794C24.0388 60.1397 24.4247 60.3977 24.8935 60.5682C25.367 60.7339 25.8854 60.8168 26.4489 60.8168C27.0691 60.8168 27.6207 60.7197 28.1037 60.5256C28.5914 60.3267 28.9749 60.0521 29.2543 59.7017C29.5336 59.3466 29.6733 58.9323 29.6733 58.4588C29.6733 58.0279 29.5502 57.6752 29.304 57.4006C29.0625 57.1259 28.7334 56.8987 28.3168 56.7188C27.9048 56.5388 27.4384 56.3802 26.9176 56.2429L25.1989 55.7741C24.0341 55.4569 23.1108 54.9905 22.429 54.375C21.7519 53.7595 21.4134 52.9451 21.4134 51.9318C21.4134 51.0937 21.6406 50.3622 22.0952 49.7372C22.5497 49.1122 23.1652 48.6269 23.9418 48.2812C24.7183 47.9309 25.5942 47.7557 26.5696 47.7557C27.5545 47.7557 28.4233 47.9285 29.1761 48.2741C29.9337 48.6198 30.5303 49.0956 30.9659 49.7017C31.4015 50.303 31.6288 50.9943 31.6477 51.7756H29.5312ZM38.7887 47.9545V62.5H36.587V50.1562H36.5018L33.0217 52.429V50.3267L36.6509 47.9545H38.7887ZM41.418 59.6591V57.8835L47.7035 47.9545H49.1026V50.5682H48.2148L43.7191 57.6847V57.7983H52.3342V59.6591H41.418ZM48.3143 62.5V59.1193L48.3285 58.3097V47.9545H50.4094V62.5H48.3143ZM58.8732 62.6989C57.8978 62.6989 57.0266 62.5308 56.2596 62.1946C55.4973 61.8584 54.8936 61.392 54.4485 60.7955C54.0082 60.1941 53.7714 59.4981 53.7383 58.7074H55.9684C55.9968 59.1383 56.1412 59.5123 56.4016 59.8295C56.6668 60.142 57.0124 60.3835 57.4386 60.554C57.8647 60.7244 58.3382 60.8097 58.859 60.8097C59.4319 60.8097 59.9386 60.7102 60.3789 60.5114C60.824 60.3125 61.172 60.0355 61.4229 59.6804C61.6739 59.3205 61.7994 58.9062 61.7994 58.4375C61.7994 57.9498 61.6739 57.5213 61.4229 57.152C61.1767 56.7779 60.8145 56.4844 60.3363 56.2713C59.8628 56.0582 59.2899 55.9517 58.6175 55.9517H57.3888V54.1619H58.6175C59.1573 54.1619 59.6308 54.0649 60.038 53.8707C60.4499 53.6766 60.7719 53.4067 61.0039 53.0611C61.2359 52.7107 61.3519 52.3011 61.3519 51.8324C61.3519 51.3826 61.2501 50.992 61.0465 50.6605C60.8477 50.3243 60.5636 50.0616 60.1942 49.8722C59.8297 49.6828 59.3988 49.5881 58.9016 49.5881C58.4281 49.5881 57.9854 49.6757 57.5735 49.8509C57.1663 50.0213 56.8349 50.2675 56.5792 50.5895C56.3235 50.9067 56.1862 51.2879 56.1673 51.733H54.0437C54.0674 50.947 54.2994 50.2557 54.7397 49.6591C55.1848 49.0625 55.7719 48.5961 56.5011 48.2599C57.2302 47.9238 58.0399 47.7557 58.93 47.7557C59.8628 47.7557 60.6677 47.938 61.3448 48.3026C62.0266 48.6624 62.5522 49.143 62.9215 49.7443C63.2956 50.3456 63.4802 51.0038 63.4755 51.7188C63.4802 52.5331 63.253 53.2244 62.7937 53.7926C62.3391 54.3608 61.7331 54.742 60.9755 54.9361V55.0497C61.9414 55.1965 62.6895 55.58 63.2198 56.2003C63.7549 56.8205 64.02 57.59 64.0153 58.5085C64.02 59.3087 63.7975 60.026 63.3477 60.6605C62.9026 61.295 62.2942 61.7945 61.5224 62.1591C60.7506 62.5189 59.8675 62.6989 58.8732 62.6989ZM68.0614 60.5114L67.9549 61.2855C67.8839 61.8537 67.7631 62.4455 67.5927 63.0611C67.427 63.6813 67.2541 64.2566 67.0742 64.7869C66.899 65.3172 66.7546 65.7386 66.641 66.0511H65.1353C65.1969 65.7576 65.2821 65.3598 65.391 64.858C65.4999 64.3608 65.6064 63.8045 65.7106 63.1889C65.8147 62.5734 65.8929 61.946 65.945 61.3068L66.016 60.5114H68.0614ZM74.4585 62.6989C73.4405 62.6989 72.5408 62.5237 71.7596 62.1733C70.9831 61.8229 70.3746 61.34 69.9343 60.7244C69.494 60.1089 69.2762 59.4081 69.2809 58.6222C69.2762 58.0066 69.4016 57.4408 69.6573 56.9247C69.9177 56.4039 70.2705 55.9706 70.7156 55.625C71.1606 55.2746 71.6578 55.0521 72.207 54.9574V54.8722C71.4826 54.697 70.9026 54.3087 70.467 53.7074C70.0314 53.1061 69.8159 52.4148 69.8207 51.6335C69.8159 50.8902 70.0124 50.2273 70.4102 49.6449C70.8126 49.0578 71.3642 48.5961 72.065 48.2599C72.7657 47.9238 73.5636 47.7557 74.4585 47.7557C75.3439 47.7557 76.1346 47.9261 76.8306 48.267C77.5314 48.6032 78.083 49.0649 78.4854 49.652C78.8879 50.2344 79.0915 50.8949 79.0962 51.6335C79.0915 52.4148 78.869 53.1061 78.4286 53.7074C77.9883 54.3087 77.4154 54.697 76.7099 54.8722V54.9574C77.2544 55.0521 77.7444 55.2746 78.18 55.625C78.6204 55.9706 78.9708 56.4039 79.2312 56.9247C79.4963 57.4408 79.6313 58.0066 79.636 58.6222C79.6313 59.4081 79.4087 60.1089 78.9684 60.7244C78.5281 61.34 77.9173 61.8229 77.136 62.1733C76.3595 62.5237 75.467 62.6989 74.4585 62.6989ZM74.4585 60.902C75.0598 60.902 75.5806 60.8026 76.021 60.6037C76.4613 60.4001 76.8022 60.1184 77.0437 59.7585C77.2852 59.3939 77.4083 58.9678 77.413 58.4801C77.4083 57.9735 77.2757 57.526 77.0153 57.1378C76.7596 56.7495 76.4116 56.4441 75.9712 56.2216C75.5309 55.9991 75.0266 55.8878 74.4585 55.8878C73.8855 55.8878 73.3765 55.9991 72.9315 56.2216C72.4864 56.4441 72.136 56.7495 71.8803 57.1378C71.6246 57.526 71.4992 57.9735 71.5039 58.4801C71.4992 58.9678 71.6152 59.3939 71.8519 59.7585C72.0934 60.1184 72.4367 60.4001 72.8817 60.6037C73.3268 60.8026 73.8524 60.902 74.4585 60.902ZM74.4585 54.1335C74.9414 54.1335 75.3699 54.0365 75.744 53.8423C76.118 53.6482 76.4116 53.3783 76.6246 53.0327C76.8424 52.687 76.9537 52.2822 76.9585 51.8182C76.9537 51.3636 76.8448 50.9659 76.6317 50.625C76.4234 50.2841 76.1322 50.0213 75.7582 49.8366C75.3841 49.6473 74.9509 49.5526 74.4585 49.5526C73.9566 49.5526 73.5162 49.6473 73.1374 49.8366C72.7634 50.0213 72.4722 50.2841 72.2638 50.625C72.0555 50.9659 71.9537 51.3636 71.9585 51.8182C71.9537 52.2822 72.0579 52.687 72.271 53.0327C72.484 53.3783 72.7776 53.6482 73.1516 53.8423C73.5304 54.0365 73.966 54.1335 74.4585 54.1335ZM81.1804 62.5V60.9091L86.1023 55.8097C86.6278 55.2557 87.0611 54.7704 87.402 54.3537C87.7476 53.9323 88.0057 53.5322 88.1761 53.1534C88.3466 52.7746 88.4318 52.3722 88.4318 51.946C88.4318 51.4631 88.3182 51.0464 88.0909 50.696C87.8636 50.3409 87.5535 50.0687 87.1605 49.8793C86.7675 49.6851 86.3248 49.5881 85.8324 49.5881C85.3116 49.5881 84.857 49.6946 84.4688 49.9077C84.0805 50.1207 83.7822 50.4214 83.5739 50.8097C83.3655 51.1979 83.2614 51.6525 83.2614 52.1733H81.1662C81.1662 51.2879 81.3698 50.5137 81.777 49.8509C82.1842 49.188 82.7429 48.6742 83.4531 48.3097C84.1634 47.9403 84.9706 47.7557 85.875 47.7557C86.7888 47.7557 87.5938 47.938 88.2898 48.3026C88.9905 48.6624 89.5374 49.1548 89.9304 49.7798C90.3234 50.4001 90.5199 51.1009 90.5199 51.8821C90.5199 52.4219 90.4181 52.9498 90.2145 53.4659C90.0156 53.982 89.6676 54.5573 89.1705 55.1918C88.6733 55.8215 87.982 56.5862 87.0966 57.4858L84.206 60.5114V60.6179H90.7543V62.5H81.1804ZM92.9361 62.5L99.2855 49.9432V49.8366H91.9418V47.9545H101.558V49.9006L95.2301 62.5H92.9361Z" fill="#265CFF"/>
<rect x="214" y="44" width="68" height="23" rx="4" fill="#E9F8ED"/>
<path d="M223.134 60L226.943 52.4659V52.402H222.537V51.2727H228.307V52.4403L224.51 60H223.134ZM229.145 60.081C228.912 60.081 228.712 59.9986 228.544 59.8338C228.377 59.6662 228.293 59.4645 228.293 59.2287C228.293 58.9957 228.377 58.7969 228.544 58.6321C228.712 58.4645 228.912 58.3807 229.145 58.3807C229.378 58.3807 229.578 58.4645 229.746 58.6321C229.914 58.7969 229.998 58.9957 229.998 59.2287C229.998 59.3849 229.958 59.5284 229.878 59.6591C229.801 59.7869 229.699 59.8892 229.571 59.9659C229.444 60.0426 229.301 60.081 229.145 60.081ZM231.504 58.2955V57.2301L235.275 51.2727H236.115V52.8409H235.582L232.885 57.1108V57.179H238.054V58.2955H231.504ZM235.642 60V57.9716L235.65 57.4858V51.2727H236.899V60H235.642ZM239.539 60V59.0455L242.492 55.9858C242.807 55.6534 243.067 55.3622 243.272 55.1122C243.479 54.8594 243.634 54.6193 243.736 54.392C243.838 54.1648 243.89 53.9233 243.89 53.6676C243.89 53.3778 243.821 53.1278 243.685 52.9176C243.549 52.7045 243.363 52.5412 243.127 52.4276C242.891 52.3111 242.625 52.2528 242.33 52.2528C242.017 52.2528 241.745 52.3168 241.512 52.4446C241.279 52.5724 241.1 52.7528 240.975 52.9858C240.85 53.2187 240.787 53.4915 240.787 53.804H239.53C239.53 53.2727 239.652 52.8082 239.897 52.4105C240.141 52.0128 240.476 51.7045 240.902 51.4858C241.328 51.2642 241.813 51.1534 242.355 51.1534C242.904 51.1534 243.387 51.2628 243.804 51.4815C244.225 51.6974 244.553 51.9929 244.789 52.3679C245.025 52.7401 245.142 53.1605 245.142 53.6293C245.142 53.9531 245.081 54.2699 244.959 54.5795C244.84 54.8892 244.631 55.2344 244.333 55.6151C244.034 55.9929 243.62 56.4517 243.088 56.9915L241.354 58.8068V58.8707H245.283V60H239.539ZM251.453 58.3636V57.9034C251.453 57.5739 251.522 57.2727 251.658 57C251.797 56.7244 251.999 56.5043 252.263 56.3395C252.53 56.1719 252.853 56.0881 253.23 56.0881C253.617 56.0881 253.941 56.1705 254.202 56.3352C254.463 56.5 254.661 56.7202 254.794 56.9957C254.931 57.2713 254.999 57.5739 254.999 57.9034V58.3636C254.999 58.6932 254.931 58.9957 254.794 59.2713C254.658 59.544 254.458 59.7642 254.194 59.9318C253.932 60.0966 253.611 60.179 253.23 60.179C252.847 60.179 252.523 60.0966 252.259 59.9318C251.995 59.7642 251.794 59.544 251.658 59.2713C251.522 58.9957 251.453 58.6932 251.453 58.3636ZM252.446 57.9034V58.3636C252.446 58.608 252.505 58.8295 252.621 59.0284C252.738 59.2273 252.941 59.3267 253.23 59.3267C253.517 59.3267 253.718 59.2273 253.831 59.0284C253.945 58.8295 254.002 58.608 254.002 58.3636V57.9034C254.002 57.6591 253.946 57.4375 253.836 57.2386C253.728 57.0398 253.526 56.9403 253.23 56.9403C252.946 56.9403 252.745 57.0398 252.625 57.2386C252.506 57.4375 252.446 57.6591 252.446 57.9034ZM247.064 53.3693V52.9091C247.064 52.5795 247.132 52.277 247.269 52.0014C247.408 51.7259 247.61 51.5057 247.874 51.3409C248.141 51.1761 248.463 51.0938 248.841 51.0938C249.228 51.0938 249.551 51.1761 249.813 51.3409C250.074 51.5057 250.272 51.7259 250.405 52.0014C250.539 52.277 250.605 52.5795 250.605 52.9091V53.3693C250.605 53.6989 250.537 54.0014 250.401 54.277C250.267 54.5497 250.069 54.7699 249.804 54.9375C249.543 55.1023 249.222 55.1847 248.841 55.1847C248.455 55.1847 248.13 55.1023 247.865 54.9375C247.604 54.7699 247.405 54.5497 247.269 54.277C247.132 54.0014 247.064 53.6989 247.064 53.3693ZM248.061 52.9091V53.3693C248.061 53.6136 248.118 53.8352 248.232 54.0341C248.348 54.233 248.551 54.3324 248.841 54.3324C249.125 54.3324 249.324 54.233 249.438 54.0341C249.554 53.8352 249.613 53.6136 249.613 53.3693V52.9091C249.613 52.6648 249.557 52.4432 249.446 52.2443C249.336 52.0455 249.134 51.946 248.841 51.946C248.557 51.946 248.355 52.0455 248.236 52.2443C248.12 52.4432 248.061 52.6648 248.061 52.9091ZM247.469 60L253.469 51.2727H254.488L248.488 60H247.469Z" fill="#28B850"/>
<path d="M272.687 51.5625L267.437 56.8125L265.25 54.625L261.312 58.5625" stroke="#28B850" stroke-linecap="round" stroke-linejoin="round"/>
<path d="M272.688 55.0625V51.5625H269.188" stroke="#28B850" stroke-linecap="round" stroke-linejoin="round"/>
</svg>
