<svg width="383" height="114" viewBox="0 0 383 114" fill="none" xmlns="http://www.w3.org/2000/svg">
<path d="M27.6367 27.6992H26.1758C26.1341 27.4596 26.0573 27.2474 25.9453 27.0625C25.8333 26.875 25.694 26.7161 25.5273 26.5859C25.3607 26.4557 25.1706 26.3581 24.957 26.293C24.7461 26.2253 24.5182 26.1914 24.2734 26.1914C23.8385 26.1914 23.4531 26.3008 23.1172 26.5195C22.7813 26.7357 22.5182 27.0534 22.3281 27.4727C22.138 27.8893 22.043 28.3984 22.043 29C22.043 29.612 22.138 30.1276 22.3281 30.5469C22.5208 30.9635 22.7839 31.2786 23.1172 31.4922C23.4531 31.7031 23.8372 31.8086 24.2695 31.8086C24.5091 31.8086 24.7331 31.7773 24.9414 31.7148C25.1523 31.6497 25.3411 31.5547 25.5078 31.4297C25.6771 31.3047 25.819 31.151 25.9336 30.9687C26.0508 30.7865 26.1315 30.5781 26.1758 30.3437L27.6367 30.3516C27.582 30.7318 27.4635 31.0885 27.2812 31.4219C27.1016 31.7552 26.8659 32.0495 26.5742 32.3047C26.2826 32.5573 25.9414 32.7552 25.5508 32.8984C25.1602 33.0391 24.7266 33.1094 24.25 33.1094C23.5469 33.1094 22.9193 32.9466 22.3672 32.6211C21.8151 32.2956 21.3802 31.8255 21.0625 31.2109C20.7448 30.5964 20.5859 29.8594 20.5859 29C20.5859 28.138 20.7461 27.401 21.0664 26.7891C21.3867 26.1745 21.8229 25.7044 22.375 25.3789C22.9271 25.0534 23.5521 24.8906 24.25 24.8906C24.6953 24.8906 25.1094 24.9531 25.4922 25.0781C25.875 25.2031 26.2161 25.3867 26.5156 25.6289C26.8151 25.8685 27.0612 26.1628 27.2539 26.5117C27.4492 26.8581 27.5768 27.2539 27.6367 27.6992ZM37.1123 29C37.1123 29.862 36.9508 30.6003 36.6279 31.2148C36.3076 31.8268 35.8701 32.2956 35.3154 32.6211C34.7633 32.9466 34.137 33.1094 33.4365 33.1094C32.736 33.1094 32.1084 32.9466 31.5537 32.6211C31.0016 32.293 30.5641 31.8229 30.2412 31.2109C29.9209 30.5964 29.7607 29.8594 29.7607 29C29.7607 28.138 29.9209 27.401 30.2412 26.7891C30.5641 26.1745 31.0016 25.7044 31.5537 25.3789C32.1084 25.0534 32.736 24.8906 33.4365 24.8906C34.137 24.8906 34.7633 25.0534 35.3154 25.3789C35.8701 25.7044 36.3076 26.1745 36.6279 26.7891C36.9508 27.401 37.1123 28.138 37.1123 29ZM35.6553 29C35.6553 28.3932 35.5602 27.8815 35.3701 27.4648C35.1826 27.0456 34.9222 26.7292 34.5889 26.5156C34.2555 26.2995 33.8714 26.1914 33.4365 26.1914C33.0016 26.1914 32.6175 26.2995 32.2842 26.5156C31.9508 26.7292 31.6891 27.0456 31.499 27.4648C31.3115 27.8815 31.2178 28.3932 31.2178 29C31.2178 29.6068 31.3115 30.1198 31.499 30.5391C31.6891 30.9557 31.9508 31.2721 32.2842 31.4883C32.6175 31.7018 33.0016 31.8086 33.4365 31.8086C33.8714 31.8086 34.2555 31.7018 34.5889 31.4883C34.9222 31.2721 35.1826 30.9557 35.3701 30.5391C35.5602 30.1198 35.6553 29.6068 35.6553 29ZM46.0566 25V33H44.7676L40.998 27.5508H40.9316V33H39.4824V25H40.7793L44.5449 30.4531H44.6152V25H46.0566ZM52.9834 27.1992C52.9469 26.8581 52.7933 26.5924 52.5225 26.4023C52.2542 26.2122 51.9053 26.1172 51.4756 26.1172C51.1735 26.1172 50.9144 26.1628 50.6982 26.2539C50.4821 26.3451 50.3167 26.4687 50.2021 26.625C50.0876 26.7812 50.029 26.9596 50.0264 27.1602C50.0264 27.3268 50.0641 27.4714 50.1396 27.5937C50.2178 27.7161 50.3232 27.8203 50.4561 27.9062C50.5889 27.9896 50.736 28.0599 50.8975 28.1172C51.0589 28.1745 51.2217 28.2227 51.3857 28.2617L52.1357 28.4492C52.4378 28.5195 52.7282 28.6146 53.0068 28.7344C53.2881 28.8542 53.5394 29.0052 53.7607 29.1875C53.9847 29.3698 54.1618 29.5898 54.292 29.8477C54.4222 30.1055 54.4873 30.4076 54.4873 30.7539C54.4873 31.2227 54.3675 31.6354 54.1279 31.9922C53.8883 32.3464 53.542 32.6237 53.0889 32.8242C52.6383 33.0221 52.0928 33.1211 51.4521 33.1211C50.8298 33.1211 50.2894 33.0247 49.8311 32.832C49.3753 32.6393 49.0186 32.3581 48.7607 31.9883C48.5055 31.6185 48.3675 31.168 48.3467 30.6367H49.7725C49.7933 30.9154 49.8792 31.1471 50.0303 31.332C50.1813 31.5169 50.3779 31.6549 50.6201 31.7461C50.8649 31.8372 51.1383 31.8828 51.4404 31.8828C51.7555 31.8828 52.0316 31.8359 52.2686 31.7422C52.5081 31.6458 52.6956 31.513 52.8311 31.3437C52.9665 31.1719 53.0355 30.9714 53.0381 30.7422C53.0355 30.5339 52.9743 30.362 52.8545 30.2266C52.7347 30.0885 52.5667 29.974 52.3506 29.8828C52.137 29.7891 51.887 29.7057 51.6006 29.6328L50.6904 29.3984C50.0316 29.2292 49.5107 28.9727 49.1279 28.6289C48.7477 28.2826 48.5576 27.8229 48.5576 27.25C48.5576 26.7786 48.6852 26.3659 48.9404 26.0117C49.1982 25.6576 49.5485 25.3828 49.9912 25.1875C50.4339 24.9896 50.9352 24.8906 51.4951 24.8906C52.0628 24.8906 52.5602 24.9896 52.9873 25.1875C53.417 25.3828 53.7542 25.6549 53.999 26.0039C54.2438 26.3503 54.3701 26.7487 54.3779 27.1992H52.9834ZM56.7793 33V25H61.9824V26.2148H58.2285V28.3867H61.7129V29.6016H58.2285V31.7852H62.0137V33H56.7793ZM64.4609 33V25H67.4609C68.0755 25 68.5911 25.1068 69.0078 25.3203C69.4271 25.5339 69.7435 25.8333 69.957 26.2187C70.1732 26.6016 70.2813 27.0482 70.2813 27.5586C70.2813 28.0716 70.1719 28.5169 69.9531 28.8945C69.737 29.2695 69.418 29.5599 68.9961 29.7656C68.5742 29.9687 68.056 30.0703 67.4414 30.0703H65.3047V28.8672H67.2461C67.6055 28.8672 67.8997 28.8177 68.1289 28.7187C68.3581 28.6172 68.5273 28.4701 68.6367 28.2773C68.7487 28.082 68.8047 27.8424 68.8047 27.5586C68.8047 27.2747 68.7487 27.0326 68.6367 26.832C68.5247 26.6289 68.3542 26.4753 68.125 26.3711C67.8958 26.2643 67.6003 26.2109 67.2383 26.2109H65.9102V33H64.4609ZM68.5938 29.375L70.5742 33H68.957L67.0117 29.375H68.5938ZM73.4814 25L75.5635 31.2969H75.6455L77.7236 25H79.3174L76.4971 33H74.708L71.8916 25H73.4814ZM81.4639 33H79.917L82.7334 25H84.5225L87.3428 33H85.7959L83.6592 26.6406H83.5967L81.4639 33ZM81.5146 29.8633H85.7334V31.0273H81.5146V29.8633ZM88.0781 26.2148V25H94.4609V26.2148H91.9883V33H90.5508V26.2148H88.0781ZM98.1406 25V33H96.6914V25H98.1406ZM101.78 25L103.862 31.2969H103.944L106.022 25H107.616L104.796 33H103.007L100.19 25H101.78ZM109.67 33V25H114.873V26.2148H111.119V28.3867H114.604V29.6016H111.119V31.7852H114.904V33H109.67Z" fill="#0B2471"/>
<path d="M285.842 33H284.295L287.111 25H288.9L291.721 33H290.174L288.037 26.6406H287.975L285.842 33ZM285.893 29.8633H290.111V31.0273H285.893V29.8633ZM298.758 27.5547C298.693 27.3437 298.603 27.1549 298.488 26.9883C298.376 26.819 298.241 26.6745 298.082 26.5547C297.926 26.4349 297.746 26.3451 297.543 26.2852C297.34 26.2227 297.118 26.1914 296.879 26.1914C296.449 26.1914 296.066 26.2995 295.73 26.5156C295.395 26.7318 295.13 27.0495 294.938 27.4687C294.747 27.8854 294.652 28.3932 294.652 28.9922C294.652 29.5964 294.747 30.1081 294.938 30.5273C295.128 30.9466 295.392 31.2656 295.73 31.4844C296.069 31.7005 296.462 31.8086 296.91 31.8086C297.316 31.8086 297.668 31.7305 297.965 31.5742C298.264 31.418 298.495 31.1966 298.656 30.9102C298.818 30.6211 298.898 30.2826 298.898 29.8945L299.227 29.9453H297.055V28.8125H300.301V29.7734C300.301 30.4583 300.155 31.0508 299.863 31.5508C299.572 32.0508 299.171 32.4362 298.66 32.707C298.15 32.9753 297.564 33.1094 296.902 33.1094C296.165 33.1094 295.518 32.944 294.961 32.6133C294.406 32.2799 293.973 31.8073 293.66 31.1953C293.35 30.5807 293.195 29.8516 293.195 29.0078C293.195 28.362 293.286 27.7852 293.469 27.2773C293.654 26.7695 293.911 26.3385 294.242 25.9844C294.573 25.6276 294.961 25.3568 295.406 25.1719C295.852 24.9844 296.336 24.8906 296.859 24.8906C297.302 24.8906 297.715 24.9557 298.098 25.0859C298.48 25.2135 298.82 25.3958 299.117 25.6328C299.417 25.8698 299.663 26.151 299.855 26.4766C300.048 26.8021 300.174 27.1615 300.234 27.5547H298.758ZM308.062 27.5547C307.996 27.3437 307.907 27.1549 307.792 26.9883C307.68 26.819 307.545 26.6745 307.386 26.5547C307.229 26.4349 307.05 26.3451 306.847 26.2852C306.644 26.2227 306.422 26.1914 306.183 26.1914C305.753 26.1914 305.37 26.2995 305.034 26.5156C304.698 26.7318 304.434 27.0495 304.241 27.4687C304.051 27.8854 303.956 28.3932 303.956 28.9922C303.956 29.5964 304.051 30.1081 304.241 30.5273C304.431 30.9466 304.696 31.2656 305.034 31.4844C305.373 31.7005 305.766 31.8086 306.214 31.8086C306.62 31.8086 306.972 31.7305 307.269 31.5742C307.568 31.418 307.799 31.1966 307.96 30.9102C308.121 30.6211 308.202 30.2826 308.202 29.8945L308.53 29.9453H306.358V28.8125H309.604V29.7734C309.604 30.4583 309.459 31.0508 309.167 31.5508C308.875 32.0508 308.474 32.4362 307.964 32.707C307.453 32.9753 306.868 33.1094 306.206 33.1094C305.469 33.1094 304.822 32.944 304.265 32.6133C303.71 32.2799 303.276 31.8073 302.964 31.1953C302.654 30.5807 302.499 29.8516 302.499 29.0078C302.499 28.362 302.59 27.7852 302.772 27.2773C302.957 26.7695 303.215 26.3385 303.546 25.9844C303.877 25.6276 304.265 25.3568 304.71 25.1719C305.155 24.9844 305.64 24.8906 306.163 24.8906C306.606 24.8906 307.019 24.9557 307.401 25.0859C307.784 25.2135 308.124 25.3958 308.421 25.6328C308.72 25.8698 308.966 26.151 309.159 26.4766C309.352 26.8021 309.478 27.1615 309.538 27.5547H308.062ZM312.006 33V25H315.006C315.62 25 316.136 25.1068 316.553 25.3203C316.972 25.5339 317.288 25.8333 317.502 26.2187C317.718 26.6016 317.826 27.0482 317.826 27.5586C317.826 28.0716 317.717 28.5169 317.498 28.8945C317.282 29.2695 316.963 29.5599 316.541 29.7656C316.119 29.9687 315.601 30.0703 314.986 30.0703H312.85V28.8672H314.791C315.15 28.8672 315.445 28.8177 315.674 28.7187C315.903 28.6172 316.072 28.4701 316.182 28.2773C316.294 28.082 316.35 27.8424 316.35 27.5586C316.35 27.2747 316.294 27.0326 316.182 26.832C316.07 26.6289 315.899 26.4753 315.67 26.3711C315.441 26.2643 315.145 26.2109 314.783 26.2109H313.455V33H312.006ZM316.139 29.375L318.119 33H316.502L314.557 29.375H316.139ZM320.16 33V25H325.363V26.2148H321.609V28.3867H325.094V29.6016H321.609V31.7852H325.395V33H320.16ZM332.189 27.1992C332.153 26.8581 331.999 26.5924 331.729 26.4023C331.46 26.2122 331.111 26.1172 330.682 26.1172C330.38 26.1172 330.12 26.1628 329.904 26.2539C329.688 26.3451 329.523 26.4687 329.408 26.625C329.294 26.7812 329.235 26.9596 329.232 27.1602C329.232 27.3268 329.27 27.4714 329.346 27.5937C329.424 27.7161 329.529 27.8203 329.662 27.9062C329.795 27.9896 329.942 28.0599 330.104 28.1172C330.265 28.1745 330.428 28.2227 330.592 28.2617L331.342 28.4492C331.644 28.5195 331.934 28.6146 332.213 28.7344C332.494 28.8542 332.745 29.0052 332.967 29.1875C333.191 29.3698 333.368 29.5898 333.498 29.8477C333.628 30.1055 333.693 30.4076 333.693 30.7539C333.693 31.2227 333.574 31.6354 333.334 31.9922C333.094 32.3464 332.748 32.6237 332.295 32.8242C331.844 33.0221 331.299 33.1211 330.658 33.1211C330.036 33.1211 329.495 33.0247 329.037 32.832C328.581 32.6393 328.225 32.3581 327.967 31.9883C327.712 31.6185 327.574 31.168 327.553 30.6367H328.979C328.999 30.9154 329.085 31.1471 329.236 31.332C329.387 31.5169 329.584 31.6549 329.826 31.7461C330.071 31.8372 330.344 31.8828 330.646 31.8828C330.962 31.8828 331.238 31.8359 331.475 31.7422C331.714 31.6458 331.902 31.513 332.037 31.3437C332.173 31.1719 332.242 30.9714 332.244 30.7422C332.242 30.5339 332.18 30.362 332.061 30.2266C331.941 30.0885 331.773 29.974 331.557 29.8828C331.343 29.7891 331.093 29.7057 330.807 29.6328L329.896 29.3984C329.238 29.2292 328.717 28.9727 328.334 28.6289C327.954 28.2826 327.764 27.8229 327.764 27.25C327.764 26.7786 327.891 26.3659 328.146 26.0117C328.404 25.6576 328.755 25.3828 329.197 25.1875C329.64 24.9896 330.141 24.8906 330.701 24.8906C331.269 24.8906 331.766 24.9896 332.193 25.1875C332.623 25.3828 332.96 25.6549 333.205 26.0039C333.45 26.3503 333.576 26.7487 333.584 27.1992H332.189ZM340.333 27.1992C340.297 26.8581 340.143 26.5924 339.872 26.4023C339.604 26.2122 339.255 26.1172 338.825 26.1172C338.523 26.1172 338.264 26.1628 338.048 26.2539C337.832 26.3451 337.666 26.4687 337.552 26.625C337.437 26.7812 337.379 26.9596 337.376 27.1602C337.376 27.3268 337.414 27.4714 337.489 27.5937C337.567 27.7161 337.673 27.8203 337.806 27.9062C337.938 27.9896 338.086 28.0599 338.247 28.1172C338.409 28.1745 338.571 28.2227 338.735 28.2617L339.485 28.4492C339.787 28.5195 340.078 28.6146 340.356 28.7344C340.638 28.8542 340.889 29.0052 341.11 29.1875C341.334 29.3698 341.511 29.5898 341.642 29.8477C341.772 30.1055 341.837 30.4076 341.837 30.7539C341.837 31.2227 341.717 31.6354 341.478 31.9922C341.238 32.3464 340.892 32.6237 340.438 32.8242C339.988 33.0221 339.442 33.1211 338.802 33.1211C338.179 33.1211 337.639 33.0247 337.181 32.832C336.725 32.6393 336.368 32.3581 336.11 31.9883C335.855 31.6185 335.717 31.168 335.696 30.6367H337.122C337.143 30.9154 337.229 31.1471 337.38 31.332C337.531 31.5169 337.728 31.6549 337.97 31.7461C338.215 31.8372 338.488 31.8828 338.79 31.8828C339.105 31.8828 339.381 31.8359 339.618 31.7422C339.858 31.6458 340.045 31.513 340.181 31.3437C340.316 31.1719 340.385 30.9714 340.388 30.7422C340.385 30.5339 340.324 30.362 340.204 30.2266C340.084 30.0885 339.916 29.974 339.7 29.8828C339.487 29.7891 339.237 29.7057 338.95 29.6328L338.04 29.3984C337.381 29.2292 336.86 28.9727 336.478 28.6289C336.097 28.2826 335.907 27.8229 335.907 27.25C335.907 26.7786 336.035 26.3659 336.29 26.0117C336.548 25.6576 336.898 25.3828 337.341 25.1875C337.784 24.9896 338.285 24.8906 338.845 24.8906C339.412 24.8906 339.91 24.9896 340.337 25.1875C340.767 25.3828 341.104 25.6549 341.349 26.0039C341.593 26.3503 341.72 26.7487 341.728 27.1992H340.333ZM345.578 25V33H344.129V25H345.578ZM349.218 25L351.3 31.2969H351.382L353.46 25H355.054L352.233 33H350.444L347.628 25H349.218ZM357.107 33V25H362.311V26.2148H358.557V28.3867H362.041V29.6016H358.557V31.7852H362.342V33H357.107Z" fill="#0B2471"/>
<circle cx="225.673" cy="56.1826" r="18.1826" fill="#EEF2FF"/>
<line x1="31" y1="56.4839" x2="360" y2="56.4839" stroke="#DCE5FF" stroke-width="6" stroke-linecap="round"/>
<circle cx="225.673" cy="56.1825" r="12.5209" fill="#DCE5FF"/>
<line x1="31" y1="56.417" x2="227.023" y2="56.417" stroke="#265CFF" stroke-width="6" stroke-linecap="round"/>
<circle cx="225.673" cy="56.1823" r="6.91273" fill="#265CFF"/>
<rect x="20" y="74.3652" width="87" height="19" rx="4" fill="#EEF2FF"/>
<path d="M28.8807 87.3652V80.0925H29.7614V86.584H33.142V87.3652H28.8807ZM36.608 87.4789C36.1155 87.4789 35.6835 87.3617 35.3118 87.1273C34.9425 86.8929 34.6536 86.565 34.4453 86.1436C34.2393 85.7222 34.1364 85.2298 34.1364 84.6664C34.1364 84.0982 34.2393 83.6022 34.4453 83.1784C34.6536 82.7547 34.9425 82.4256 35.3118 82.1912C35.6835 81.9569 36.1155 81.8397 36.608 81.8397C37.1004 81.8397 37.5313 81.9569 37.9006 82.1912C38.2723 82.4256 38.5611 82.7547 38.767 83.1784C38.9754 83.6022 39.0795 84.0982 39.0795 84.6664C39.0795 85.2298 38.9754 85.7222 38.767 86.1436C38.5611 86.565 38.2723 86.8929 37.9006 87.1273C37.5313 87.3617 37.1004 87.4789 36.608 87.4789ZM36.608 86.726C36.982 86.726 37.2898 86.6301 37.5312 86.4384C37.7727 86.2466 37.9515 85.9945 38.0675 85.682C38.1835 85.3695 38.2415 85.031 38.2415 84.6664C38.2415 84.3018 38.1835 83.9621 38.0675 83.6472C37.9515 83.3323 37.7727 83.0778 37.5312 82.8837C37.2898 82.6896 36.982 82.5925 36.608 82.5925C36.2339 82.5925 35.9261 82.6896 35.6847 82.8837C35.4432 83.0778 35.2644 83.3323 35.1484 83.6472C35.0324 83.9621 34.9744 84.3018 34.9744 84.6664C34.9744 85.031 35.0324 85.3695 35.1484 85.682C35.2644 85.9945 35.4432 86.2466 35.6847 86.4384C35.9261 86.6301 36.2339 86.726 36.608 86.726ZM41.4091 87.3652L39.7472 81.9107H40.6278L41.8068 86.0868H41.8636L43.0284 81.9107H43.9233L45.0739 86.0726H45.1307L46.3097 81.9107H47.1903L45.5284 87.3652H44.7045L43.5114 83.1749H43.4261L42.233 87.3652H41.4091ZM50.3997 87.4789C49.8741 87.4789 49.4208 87.3629 49.0396 87.1309C48.6608 86.8965 48.3684 86.5698 48.1625 86.1507C47.9589 85.7293 47.8571 85.2393 47.8571 84.6806C47.8571 84.1219 47.9589 83.6294 48.1625 83.2033C48.3684 82.7748 48.6549 82.441 49.0218 82.2019C49.3912 81.9604 49.822 81.8397 50.3145 81.8397C50.5985 81.8397 50.8791 81.887 51.1561 81.9817C51.4331 82.0764 51.6852 82.2303 51.9125 82.4434C52.1397 82.6541 52.3208 82.9334 52.4558 83.2814C52.5907 83.6294 52.6582 84.0579 52.6582 84.5669V84.9221H48.4537V84.1976H51.8059C51.8059 83.8899 51.7444 83.6152 51.6213 83.3738C51.5005 83.1323 51.3277 82.9417 51.1028 82.802C50.8803 82.6623 50.6175 82.5925 50.3145 82.5925C49.9806 82.5925 49.6918 82.6754 49.448 82.8411C49.2065 83.0044 49.0207 83.2175 48.8904 83.4803C48.7602 83.7431 48.6951 84.0248 48.6951 84.3255V84.8084C48.6951 85.2203 48.7662 85.5695 48.9082 85.856C49.0526 86.1401 49.2527 86.3567 49.5083 86.5059C49.764 86.6526 50.0611 86.726 50.3997 86.726C50.6199 86.726 50.8187 86.6953 50.9963 86.6337C51.1762 86.5698 51.3313 86.4751 51.4615 86.3496C51.5917 86.2218 51.6923 86.0632 51.7633 85.8738L52.573 86.101C52.4877 86.3757 52.3445 86.6171 52.1433 86.8255C51.9421 87.0314 51.6935 87.1924 51.3975 87.3084C51.1016 87.4221 50.769 87.4789 50.3997 87.4789ZM53.9331 87.3652V81.9107H54.7427V82.7346H54.7995C54.899 82.4647 55.0789 82.2457 55.3393 82.0776C55.5997 81.9095 55.8933 81.8255 56.22 81.8255C56.2815 81.8255 56.3585 81.8266 56.4508 81.829C56.5431 81.8314 56.613 81.8349 56.6603 81.8397V82.6919C56.6319 82.6848 56.5668 82.6742 56.465 82.66C56.3656 82.6434 56.2602 82.6351 56.149 82.6351C55.8838 82.6351 55.6471 82.6908 55.4387 82.802C55.2328 82.9109 55.0694 83.0624 54.9487 83.2566C54.8303 83.4483 54.7711 83.6673 54.7711 83.9135V87.3652H53.9331ZM64.9265 81.9107L62.9094 87.3652H62.0572L60.0401 81.9107H60.9492L62.4549 86.2573H62.5117L64.0174 81.9107H64.9265ZM68.0533 87.4789C67.5608 87.4789 67.1288 87.3617 66.7571 87.1273C66.3878 86.8929 66.099 86.565 65.8906 86.1436C65.6847 85.7222 65.5817 85.2298 65.5817 84.6664C65.5817 84.0982 65.6847 83.6022 65.8906 83.1784C66.099 82.7547 66.3878 82.4256 66.7571 82.1912C67.1288 81.9569 67.5608 81.8397 68.0533 81.8397C68.5457 81.8397 68.9766 81.9569 69.3459 82.1912C69.7176 82.4256 70.0064 82.7547 70.2124 83.1784C70.4207 83.6022 70.5249 84.0982 70.5249 84.6664C70.5249 85.2298 70.4207 85.7222 70.2124 86.1436C70.0064 86.565 69.7176 86.8929 69.3459 87.1273C68.9766 87.3617 68.5457 87.4789 68.0533 87.4789ZM68.0533 86.726C68.4273 86.726 68.7351 86.6301 68.9766 86.4384C69.218 86.2466 69.3968 85.9945 69.5128 85.682C69.6288 85.3695 69.6868 85.031 69.6868 84.6664C69.6868 84.3018 69.6288 83.9621 69.5128 83.6472C69.3968 83.3323 69.218 83.0778 68.9766 82.8837C68.7351 82.6896 68.4273 82.5925 68.0533 82.5925C67.6792 82.5925 67.3714 82.6896 67.13 82.8837C66.8885 83.0778 66.7098 83.3323 66.5938 83.6472C66.4777 83.9621 66.4197 84.3018 66.4197 84.6664C66.4197 85.031 66.4777 85.3695 66.5938 85.682C66.7098 85.9945 66.8885 86.2466 67.13 86.4384C67.3714 86.6301 67.6792 86.726 68.0533 86.726ZM72.6422 80.0925V87.3652H71.8042V80.0925H72.6422ZM75.7823 87.4931C75.4367 87.4931 75.123 87.428 74.8413 87.2978C74.5595 87.1652 74.3358 86.9746 74.1701 86.726C74.0044 86.4751 73.9215 86.1721 73.9215 85.8169C73.9215 85.5044 73.9831 85.2511 74.1062 85.057C74.2293 84.8605 74.3938 84.7066 74.5998 84.5953C74.8058 84.4841 75.033 84.4012 75.2816 84.3468C75.5326 84.29 75.7847 84.245 76.038 84.2118C76.3694 84.1692 76.6381 84.1373 76.8441 84.1159C77.0524 84.0923 77.204 84.0532 77.2987 83.9988C77.3957 83.9443 77.4442 83.8496 77.4442 83.7147V83.6863C77.4442 83.3359 77.3484 83.0636 77.1566 82.8695C76.9672 82.6754 76.6796 82.5783 76.2937 82.5783C75.8936 82.5783 75.5799 82.6659 75.3526 82.8411C75.1254 83.0163 74.9656 83.2033 74.8732 83.4022L74.0778 83.1181C74.2198 82.7866 74.4092 82.5286 74.646 82.3439C74.8851 82.1569 75.1455 82.0267 75.4272 81.9533C75.7113 81.8775 75.9906 81.8397 76.2653 81.8397C76.4405 81.8397 76.6417 81.861 76.869 81.9036C77.0986 81.9438 77.32 82.0279 77.533 82.1557C77.7485 82.2836 77.9272 82.4765 78.0692 82.7346C78.2113 82.9926 78.2823 83.3382 78.2823 83.7715V87.3652H77.4442V86.6266H77.4016C77.3448 86.745 77.2501 86.8716 77.1175 87.0066C76.985 87.1415 76.8086 87.2563 76.5884 87.351C76.3683 87.4457 76.0996 87.4931 75.7823 87.4931ZM75.9102 86.7402C76.2416 86.7402 76.521 86.6751 76.7482 86.5449C76.9779 86.4147 77.1507 86.2466 77.2667 86.0407C77.3851 85.8347 77.4442 85.6181 77.4442 85.3908V84.6238C77.4087 84.6664 77.3306 84.7054 77.2099 84.7409C77.0915 84.7741 76.9542 84.8037 76.7979 84.8297C76.6441 84.8534 76.4937 84.8747 76.3469 84.8936C76.2025 84.9102 76.0853 84.9244 75.9954 84.9363C75.7776 84.9647 75.574 85.0108 75.3846 85.0748C75.1976 85.1363 75.046 85.2298 74.93 85.3553C74.8164 85.4784 74.7596 85.6465 74.7596 85.8596C74.7596 86.1507 74.8673 86.3709 75.0827 86.5201C75.3005 86.6668 75.5763 86.7402 75.9102 86.7402ZM82.1841 81.9107V82.6209H79.3574V81.9107H82.1841ZM80.1813 80.6039H81.0194V85.8027C81.0194 86.0395 81.0537 86.217 81.1223 86.3354C81.1934 86.4514 81.2833 86.5295 81.3922 86.5698C81.5035 86.6077 81.6207 86.6266 81.7438 86.6266C81.8361 86.6266 81.9119 86.6219 81.9711 86.6124C82.0302 86.6006 82.0776 86.5911 82.1131 86.584L82.2836 87.3368C82.2267 87.3581 82.1474 87.3794 82.0456 87.4007C81.9438 87.4244 81.8148 87.4363 81.6586 87.4363C81.4218 87.4363 81.1898 87.3854 80.9625 87.2836C80.7376 87.1818 80.5506 87.0267 80.4015 86.8184C80.2547 86.61 80.1813 86.3472 80.1813 86.03V80.6039ZM83.4448 87.3652V81.9107H84.2828V87.3652H83.4448ZM83.8709 81.0016C83.7076 81.0016 83.5667 80.946 83.4483 80.8347C83.3323 80.7234 83.2743 80.5897 83.2743 80.4334C83.2743 80.2772 83.3323 80.1434 83.4483 80.0321C83.5667 79.9209 83.7076 79.8652 83.8709 79.8652C84.0343 79.8652 84.1739 79.9209 84.29 80.0321C84.4083 80.1434 84.4675 80.2772 84.4675 80.4334C84.4675 80.5897 84.4083 80.7234 84.29 80.8347C84.1739 80.946 84.0343 81.0016 83.8709 81.0016ZM86.6559 80.0925V87.3652H85.8178V80.0925H86.6559ZM88.1909 87.3652V81.9107H89.0289V87.3652H88.1909ZM88.617 81.0016C88.4537 81.0016 88.3128 80.946 88.1944 80.8347C88.0784 80.7234 88.0204 80.5897 88.0204 80.4334C88.0204 80.2772 88.0784 80.1434 88.1944 80.0321C88.3128 79.9209 88.4537 79.8652 88.617 79.8652C88.7804 79.8652 88.92 79.9209 89.036 80.0321C89.1544 80.1434 89.2136 80.2772 89.2136 80.4334C89.2136 80.5897 89.1544 80.7234 89.036 80.8347C88.92 80.946 88.7804 81.0016 88.617 81.0016ZM92.9361 81.9107V82.6209H90.1094V81.9107H92.9361ZM90.9332 80.6039H91.7713V85.8027C91.7713 86.0395 91.8056 86.217 91.8743 86.3354C91.9453 86.4514 92.0353 86.5295 92.1442 86.5698C92.2554 86.6077 92.3726 86.6266 92.4957 86.6266C92.5881 86.6266 92.6638 86.6219 92.723 86.6124C92.7822 86.6006 92.8295 86.5911 92.8651 86.584L93.0355 87.3368C92.9787 87.3581 92.8994 87.3794 92.7976 87.4007C92.6958 87.4244 92.5668 87.4363 92.4105 87.4363C92.1738 87.4363 91.9418 87.3854 91.7145 87.2836C91.4896 87.1818 91.3026 87.0267 91.1534 86.8184C91.0066 86.61 90.9332 86.3472 90.9332 86.03V80.6039ZM94.7365 89.4107C94.5945 89.4107 94.4678 89.3989 94.3565 89.3752C94.2453 89.3539 94.1683 89.3326 94.1257 89.3113L94.3388 88.5726C94.5424 88.6247 94.7223 88.6436 94.8786 88.6294C95.0348 88.6152 95.1733 88.5454 95.294 88.4199C95.4171 88.2968 95.5296 88.0968 95.6314 87.8198L95.7876 87.3936L93.7706 81.9107H94.6797L96.1854 86.2573H96.2422L97.7479 81.9107H98.657L96.3416 88.1607C96.2375 88.4424 96.1084 88.6756 95.9545 88.8603C95.8007 89.0473 95.6219 89.1858 95.4183 89.2757C95.2171 89.3657 94.9898 89.4107 94.7365 89.4107Z" fill="#265CFF"/>
<rect x="279" y="74.3652" width="84" height="19" rx="4" fill="#EEF2FF"/>
<path d="M287.881 87.3652V80.0925H288.761V83.3311H292.639V80.0925H293.52V87.3652H292.639V84.1124H288.761V87.3652H287.881ZM295.169 87.3652V81.9107H296.007V87.3652H295.169ZM295.596 81.0016C295.432 81.0016 295.291 80.946 295.173 80.8347C295.057 80.7234 294.999 80.5897 294.999 80.4334C294.999 80.2772 295.057 80.1434 295.173 80.0321C295.291 79.9209 295.432 79.8652 295.596 79.8652C295.759 79.8652 295.899 79.9209 296.015 80.0321C296.133 80.1434 296.192 80.2772 296.192 80.4334C296.192 80.5897 296.133 80.7234 296.015 80.8347C295.899 80.946 295.759 81.0016 295.596 81.0016ZM299.744 89.5243C299.339 89.5243 298.991 89.4722 298.7 89.3681C298.409 89.2663 298.166 89.1313 297.972 88.9632C297.78 88.7975 297.628 88.62 297.514 88.4306L298.182 87.9618C298.257 88.0613 298.353 88.1749 298.469 88.3027C298.585 88.4329 298.744 88.5454 298.945 88.6401C299.149 88.7372 299.415 88.7857 299.744 88.7857C300.184 88.7857 300.548 88.6792 300.834 88.4661C301.121 88.253 301.264 87.9192 301.264 87.4647V86.3567H301.193C301.131 86.4561 301.044 86.5792 300.93 86.726C300.819 86.8704 300.658 86.9995 300.447 87.1131C300.239 87.2244 299.957 87.28 299.602 87.28C299.162 87.28 298.766 87.1758 298.416 86.9675C298.068 86.7592 297.792 86.4561 297.589 86.0584C297.387 85.6607 297.287 85.1777 297.287 84.6096C297.287 84.0508 297.385 83.5643 297.581 83.15C297.778 82.7334 298.051 82.4114 298.402 82.1841C298.752 81.9545 299.157 81.8397 299.616 81.8397C299.971 81.8397 300.253 81.8989 300.461 82.0172C300.672 82.1332 300.833 82.2658 300.944 82.415C301.058 82.5617 301.146 82.6825 301.207 82.7772H301.292V81.9107H302.102V87.5215C302.102 87.9902 301.996 88.3714 301.782 88.665C301.572 88.9609 301.288 89.1775 300.93 89.3148C300.575 89.4545 300.18 89.5243 299.744 89.5243ZM299.716 86.5272C300.052 86.5272 300.336 86.4502 300.568 86.2963C300.8 86.1425 300.976 85.9211 301.097 85.6323C301.218 85.3435 301.278 84.9978 301.278 84.5953C301.278 84.2024 301.219 83.8555 301.101 83.5549C300.982 83.2542 300.807 83.0186 300.575 82.8482C300.343 82.6777 300.057 82.5925 299.716 82.5925C299.361 82.5925 299.065 82.6825 298.828 82.8624C298.594 83.0423 298.417 83.2838 298.299 83.5868C298.183 83.8899 298.125 84.226 298.125 84.5953C298.125 84.9741 298.184 85.3091 298.302 85.6003C298.423 85.8891 298.601 86.1164 298.835 86.2821C299.072 86.4455 299.365 86.5272 299.716 86.5272ZM304.474 84.084V87.3652H303.636V80.0925H304.474V82.763H304.545C304.673 82.4812 304.865 82.2575 305.121 82.0918C305.379 81.9237 305.722 81.8397 306.15 81.8397C306.522 81.8397 306.848 81.9142 307.127 82.0634C307.406 82.2102 307.623 82.4363 307.777 82.7417C307.933 83.0447 308.011 83.4306 308.011 83.8993V87.3652H307.173V83.9561C307.173 83.5229 307.061 83.1879 306.836 82.9512C306.613 82.7121 306.304 82.5925 305.909 82.5925C305.634 82.5925 305.388 82.6505 305.17 82.7665C304.955 82.8825 304.784 83.0518 304.659 83.2743C304.536 83.4969 304.474 83.7667 304.474 84.084ZM311.831 87.4789C311.306 87.4789 310.852 87.3629 310.471 87.1309C310.092 86.8965 309.8 86.5698 309.594 86.1507C309.391 85.7293 309.289 85.2393 309.289 84.6806C309.289 84.1219 309.391 83.6294 309.594 83.2033C309.8 82.7748 310.087 82.441 310.453 82.2019C310.823 81.9604 311.254 81.8397 311.746 81.8397C312.03 81.8397 312.311 81.887 312.588 81.9817C312.865 82.0764 313.117 82.2303 313.344 82.4434C313.571 82.6541 313.752 82.9334 313.887 83.2814C314.022 83.6294 314.09 84.0579 314.09 84.5669V84.9221H309.885V84.1976H313.238C313.238 83.8899 313.176 83.6152 313.053 83.3738C312.932 83.1323 312.759 82.9417 312.534 82.802C312.312 82.6623 312.049 82.5925 311.746 82.5925C311.412 82.5925 311.123 82.6754 310.88 82.8411C310.638 83.0044 310.452 83.2175 310.322 83.4803C310.192 83.7431 310.127 84.0248 310.127 84.3255V84.8084C310.127 85.2203 310.198 85.5695 310.34 85.856C310.484 86.1401 310.684 86.3567 310.94 86.5059C311.196 86.6526 311.493 86.726 311.831 86.726C312.051 86.726 312.25 86.6953 312.428 86.6337C312.608 86.5698 312.763 86.4751 312.893 86.3496C313.023 86.2218 313.124 86.0632 313.195 85.8738L314.005 86.101C313.919 86.3757 313.776 86.6171 313.575 86.8255C313.374 87.0314 313.125 87.1924 312.829 87.3084C312.533 87.4221 312.201 87.4789 311.831 87.4789ZM315.365 87.3652V81.9107H316.174V82.7346H316.231C316.331 82.4647 316.511 82.2457 316.771 82.0776C317.031 81.9095 317.325 81.8255 317.652 81.8255C317.713 81.8255 317.79 81.8266 317.882 81.829C317.975 81.8314 318.045 81.8349 318.092 81.8397V82.6919C318.064 82.6848 317.998 82.6742 317.897 82.66C317.797 82.6434 317.692 82.6351 317.581 82.6351C317.315 82.6351 317.079 82.6908 316.87 82.802C316.664 82.9109 316.501 83.0624 316.38 83.2566C316.262 83.4483 316.203 83.6673 316.203 83.9135V87.3652H315.365ZM321.898 87.3652V81.9107H322.708V82.7346H322.764C322.864 82.4647 323.044 82.2457 323.304 82.0776C323.565 81.9095 323.858 81.8255 324.185 81.8255C324.246 81.8255 324.323 81.8266 324.416 81.829C324.508 81.8314 324.578 81.8349 324.625 81.8397V82.6919C324.597 82.6848 324.532 82.6742 324.43 82.66C324.33 82.6434 324.225 82.6351 324.114 82.6351C323.849 82.6351 323.612 82.6908 323.404 82.802C323.198 82.9109 323.034 83.0624 322.914 83.2566C322.795 83.4483 322.736 83.6673 322.736 83.9135V87.3652H321.898ZM327.74 87.4789C327.214 87.4789 326.761 87.3629 326.379 87.1309C326.001 86.8965 325.708 86.5698 325.502 86.1507C325.299 85.7293 325.197 85.2393 325.197 84.6806C325.197 84.1219 325.299 83.6294 325.502 83.2033C325.708 82.7748 325.995 82.441 326.362 82.2019C326.731 81.9604 327.162 81.8397 327.654 81.8397C327.938 81.8397 328.219 81.887 328.496 81.9817C328.773 82.0764 329.025 82.2303 329.252 82.4434C329.48 82.6541 329.661 82.9334 329.796 83.2814C329.931 83.6294 329.998 84.0579 329.998 84.5669V84.9221H325.794V84.1976H329.146C329.146 83.8899 329.084 83.6152 328.961 83.3738C328.84 83.1323 328.668 82.9417 328.443 82.802C328.22 82.6623 327.957 82.5925 327.654 82.5925C327.32 82.5925 327.032 82.6754 326.788 82.8411C326.546 83.0044 326.36 83.2175 326.23 83.4803C326.1 83.7431 326.035 84.0248 326.035 84.3255V84.8084C326.035 85.2203 326.106 85.5695 326.248 85.856C326.392 86.1401 326.593 86.3567 326.848 86.5059C327.104 86.6526 327.401 86.726 327.74 86.726C327.96 86.726 328.159 86.6953 328.336 86.6337C328.516 86.5698 328.671 86.4751 328.801 86.3496C328.932 86.2218 329.032 86.0632 329.103 85.8738L329.913 86.101C329.828 86.3757 329.684 86.6171 329.483 86.8255C329.282 87.0314 329.033 87.1924 328.737 87.3084C328.441 87.4221 328.109 87.4789 327.74 87.4789ZM333.645 81.9107V82.6209H330.818V81.9107H333.645ZM331.642 80.6039H332.48V85.8027C332.48 86.0395 332.515 86.217 332.583 86.3354C332.654 86.4514 332.744 86.5295 332.853 86.5698C332.964 86.6077 333.082 86.6266 333.205 86.6266C333.297 86.6266 333.373 86.6219 333.432 86.6124C333.491 86.6006 333.539 86.5911 333.574 86.584L333.744 87.3368C333.688 87.3581 333.608 87.3794 333.507 87.4007C333.405 87.4244 333.276 87.4363 333.119 87.4363C332.883 87.4363 332.651 87.3854 332.423 87.2836C332.199 87.1818 332.012 87.0267 331.862 86.8184C331.716 86.61 331.642 86.3472 331.642 86.03V80.6039ZM338.343 85.1351V81.9107H339.181V87.3652H338.343V86.4419H338.286C338.159 86.7189 337.96 86.9545 337.69 87.1486C337.42 87.3404 337.079 87.4363 336.667 87.4363C336.326 87.4363 336.023 87.3617 335.758 87.2125C335.493 87.061 335.285 86.8337 335.133 86.5307C334.981 86.2253 334.906 85.8406 334.906 85.3766V81.9107H335.744V85.3198C335.744 85.7175 335.855 86.0347 336.078 86.2715C336.302 86.5082 336.589 86.6266 336.937 86.6266C337.145 86.6266 337.357 86.5733 337.573 86.4668C337.79 86.3603 337.973 86.1969 338.119 85.9767C338.269 85.7566 338.343 85.476 338.343 85.1351ZM340.716 87.3652V81.9107H341.526V82.7346H341.583C341.682 82.4647 341.862 82.2457 342.123 82.0776C342.383 81.9095 342.676 81.8255 343.003 81.8255C343.065 81.8255 343.142 81.8266 343.234 81.829C343.326 81.8314 343.396 81.8349 343.444 81.8397V82.6919C343.415 82.6848 343.35 82.6742 343.248 82.66C343.149 82.6434 343.043 82.6351 342.932 82.6351C342.667 82.6351 342.43 82.6908 342.222 82.802C342.016 82.9109 341.853 83.0624 341.732 83.2566C341.614 83.4483 341.554 83.6673 341.554 83.9135V87.3652H340.716ZM345.275 84.084V87.3652H344.437V81.9107H345.247V82.763H345.318C345.445 82.486 345.64 82.2634 345.9 82.0953C346.16 81.9249 346.497 81.8397 346.909 81.8397C347.278 81.8397 347.601 81.9154 347.878 82.0669C348.155 82.2161 348.37 82.4434 348.524 82.7488C348.678 83.0518 348.755 83.4353 348.755 83.8993V87.3652H347.917V83.9561C347.917 83.5276 347.806 83.1938 347.583 82.9547C347.361 82.7132 347.055 82.5925 346.667 82.5925C346.4 82.5925 346.16 82.6505 345.95 82.7665C345.741 82.8825 345.577 83.0518 345.456 83.2743C345.335 83.4969 345.275 83.7667 345.275 84.084ZM354.15 83.1323L353.397 83.3453C353.35 83.2199 353.28 83.098 353.188 82.9796C353.098 82.8588 352.975 82.7594 352.819 82.6813C352.662 82.6032 352.462 82.5641 352.218 82.5641C351.885 82.5641 351.606 82.641 351.384 82.7949C351.164 82.9464 351.054 83.1394 351.054 83.3738C351.054 83.5821 351.129 83.7466 351.281 83.8674C351.432 83.9881 351.669 84.0887 351.991 84.1692L352.801 84.3681C353.288 84.4864 353.652 84.6676 353.891 84.9114C354.13 85.1529 354.25 85.4642 354.25 85.8453C354.25 86.1578 354.16 86.4372 353.98 86.6834C353.802 86.9296 353.554 87.1238 353.234 87.2658C352.914 87.4078 352.543 87.4789 352.119 87.4789C351.563 87.4789 351.102 87.3581 350.738 87.1167C350.373 86.8752 350.142 86.5224 350.045 86.0584L350.841 85.8596C350.916 86.1531 351.06 86.3733 351.27 86.5201C351.483 86.6668 351.761 86.7402 352.105 86.7402C352.495 86.7402 352.806 86.6574 353.035 86.4917C353.267 86.3236 353.383 86.1223 353.383 85.888C353.383 85.6986 353.317 85.54 353.184 85.4121C353.052 85.2819 352.848 85.1848 352.574 85.1209L351.664 84.9078C351.165 84.7895 350.798 84.606 350.564 84.3574C350.332 84.1065 350.216 83.7928 350.216 83.4164C350.216 83.1086 350.302 82.8364 350.475 82.5996C350.65 82.3629 350.888 82.177 351.189 82.0421C351.492 81.9071 351.835 81.8397 352.218 81.8397C352.758 81.8397 353.182 81.958 353.49 82.1948C353.8 82.4315 354.02 82.744 354.15 83.1323Z" fill="#265CFF"/>
</svg>
