<svg width="199" height="44" viewBox="0 0 199 44" fill="none" xmlns="http://www.w3.org/2000/svg">
<path d="M30 29.5C34.1421 29.5 37.5 26.1421 37.5 22C37.5 17.8579 34.1421 14.5 30 14.5C25.8579 14.5 22.5 17.8579 22.5 22C22.5 26.1421 25.8579 29.5 30 29.5Z" stroke="white" stroke-linecap="round" stroke-linejoin="round"/>
<path d="M30 22V14.5" stroke="white" stroke-linecap="round" stroke-linejoin="round"/>
<path d="M36.4922 18.25L23.5078 25.75" stroke="white" stroke-linecap="round" stroke-linejoin="round"/>
<path d="M49.1186 27.5V17.3182H52.7479C53.5367 17.3182 54.1913 17.4541 54.7116 17.7259C55.2353 17.9976 55.6264 18.3738 55.8849 18.8544C56.1435 19.3317 56.2727 19.8835 56.2727 20.5099C56.2727 21.133 56.1418 21.6816 55.88 22.1555C55.6214 22.6262 55.2304 22.9924 54.7067 23.2543C54.1863 23.5161 53.5317 23.647 52.7429 23.647H49.9936V22.3246H52.6037C53.1009 22.3246 53.5052 22.2533 53.8168 22.1108C54.1316 21.9683 54.362 21.7611 54.5078 21.4893C54.6536 21.2176 54.7266 20.8911 54.7266 20.5099C54.7266 20.1255 54.652 19.7924 54.5028 19.5107C54.357 19.2289 54.1267 19.0135 53.8118 18.8643C53.5002 18.7119 53.0909 18.6357 52.5838 18.6357H50.6548V27.5H49.1186ZM54.1449 22.9062L56.6605 27.5H54.9105L52.4446 22.9062H54.1449ZM61.2182 27.6541C60.4658 27.6541 59.8179 27.4934 59.2743 27.1719C58.7341 26.8471 58.3165 26.3913 58.0215 25.8047C57.7298 25.2147 57.584 24.5237 57.584 23.7315C57.584 22.9493 57.7298 22.2599 58.0215 21.6634C58.3165 21.0668 58.7275 20.6011 59.2544 20.2663C59.7847 19.9316 60.4045 19.7642 61.1138 19.7642C61.5447 19.7642 61.9623 19.8355 62.3667 19.978C62.771 20.1205 63.1339 20.3442 63.4554 20.6491C63.7769 20.9541 64.0305 21.3501 64.2161 21.8374C64.4017 22.3213 64.4945 22.9096 64.4945 23.6023V24.1293H58.4242V23.0156H63.0378C63.0378 22.6245 62.9583 22.2782 62.7992 21.9766C62.6401 21.6716 62.4164 21.4313 62.128 21.2557C61.843 21.08 61.5082 20.9922 61.1238 20.9922C60.7061 20.9922 60.3416 21.0949 60.03 21.3004C59.7218 21.5026 59.4831 21.7678 59.3141 22.0959C59.1484 22.4207 59.0655 22.7737 59.0655 23.1548V24.0249C59.0655 24.5353 59.155 24.9695 59.334 25.3274C59.5163 25.6854 59.7698 25.9588 60.0946 26.1477C60.4194 26.3333 60.7989 26.4261 61.2331 26.4261C61.5149 26.4261 61.7717 26.3864 62.0037 26.3068C62.2357 26.224 62.4363 26.1013 62.6053 25.9389C62.7743 25.7765 62.9036 25.576 62.9931 25.3374L64.4 25.5909C64.2873 26.0052 64.0852 26.3681 63.7935 26.6797C63.5051 26.9879 63.1422 27.2282 62.7047 27.4006C62.2705 27.5696 61.775 27.6541 61.2182 27.6541ZM66.2631 27.5V17.3182H67.7496V21.1016H67.8391C67.9253 20.9425 68.0496 20.7585 68.212 20.5497C68.3744 20.3409 68.5998 20.1586 68.8881 20.0028C69.1765 19.8438 69.5576 19.7642 70.0316 19.7642C70.6481 19.7642 71.1983 19.92 71.6822 20.2315C72.1661 20.5431 72.5456 20.9922 72.8207 21.5788C73.0991 22.1655 73.2383 22.8714 73.2383 23.6967C73.2383 24.522 73.1007 25.2296 72.8256 25.8196C72.5505 26.4062 72.1727 26.8587 71.6921 27.1768C71.2115 27.4917 70.663 27.6491 70.0465 27.6491C69.5825 27.6491 69.203 27.5713 68.908 27.4155C68.6164 27.2597 68.3877 27.0774 68.2219 26.8686C68.0562 26.6598 67.9286 26.4742 67.8391 26.3118H67.7148V27.5H66.2631ZM67.7198 23.6818C67.7198 24.2187 67.7977 24.6894 67.9535 25.0938C68.1093 25.4981 68.3346 25.8146 68.6296 26.0433C68.9246 26.2687 69.2859 26.3814 69.7134 26.3814C70.1576 26.3814 70.5288 26.2637 70.8271 26.0284C71.1254 25.7898 71.3507 25.4666 71.5032 25.0589C71.659 24.6513 71.7369 24.1922 71.7369 23.6818C71.7369 23.178 71.6606 22.7256 71.5082 22.3246C71.359 21.9235 71.1336 21.607 70.832 21.375C70.5337 21.143 70.1609 21.027 69.7134 21.027C69.2826 21.027 68.918 21.138 68.6197 21.3601C68.3247 21.5821 68.101 21.892 67.9485 22.2898C67.796 22.6875 67.7198 23.1515 67.7198 23.6818ZM77.1298 27.669C76.6459 27.669 76.2084 27.5795 75.8173 27.4006C75.4262 27.2183 75.1163 26.9548 74.8876 26.6101C74.6622 26.2654 74.5495 25.8428 74.5495 25.3423C74.5495 24.9115 74.6324 24.5568 74.7981 24.2784C74.9638 24 75.1876 23.7796 75.4693 23.6172C75.751 23.4548 76.0659 23.3321 76.4139 23.2493C76.7619 23.1664 77.1165 23.1035 77.4778 23.0604C77.9352 23.0073 78.3064 22.9643 78.5914 22.9311C78.8765 22.8946 79.0836 22.8366 79.2129 22.7571C79.3422 22.6776 79.4068 22.5483 79.4068 22.3693V22.3345C79.4068 21.9003 79.2842 21.5639 79.0389 21.3253C78.7969 21.0866 78.4357 20.9673 77.9551 20.9673C77.4546 20.9673 77.0602 21.0784 76.7718 21.3004C76.4868 21.5192 76.2896 21.7628 76.1802 22.0312L74.7832 21.7131C74.9489 21.2491 75.1909 20.8745 75.5091 20.5895C75.8306 20.3011 76.2001 20.0923 76.6177 19.9631C77.0353 19.8305 77.4745 19.7642 77.9352 19.7642C78.2401 19.7642 78.5633 19.8007 78.9047 19.8736C79.2493 19.9432 79.5708 20.0724 79.8691 20.2614C80.1708 20.4503 80.4177 20.7204 80.6099 21.0717C80.8021 21.4197 80.8983 21.8722 80.8983 22.429V27.5H79.4466V26.456H79.3869C79.2908 26.6482 79.1466 26.8371 78.9544 27.0227C78.7621 27.2083 78.5152 27.3625 78.2136 27.4851C77.912 27.6077 77.5507 27.669 77.1298 27.669ZM77.4529 26.4759C77.8639 26.4759 78.2153 26.3946 78.5069 26.2322C78.8019 26.0698 79.0256 25.8577 79.1781 25.5959C79.3339 25.3307 79.4118 25.0473 79.4118 24.7457V23.7614C79.3587 23.8144 79.256 23.8641 79.1035 23.9105C78.9544 23.9536 78.7837 23.9917 78.5914 24.0249C78.3992 24.0547 78.2119 24.0829 78.0297 24.1094C77.8474 24.1326 77.6949 24.1525 77.5723 24.169C77.2839 24.2055 77.0204 24.2668 76.7818 24.353C76.5465 24.4392 76.3575 24.5634 76.215 24.7259C76.0758 24.8849 76.0062 25.0971 76.0062 25.3622C76.0062 25.7301 76.1421 26.0085 76.4139 26.1974C76.6857 26.383 77.032 26.4759 77.4529 26.4759ZM84.3647 17.3182V27.5H82.8782V17.3182H84.3647ZM88.5868 27.669C88.1029 27.669 87.6654 27.5795 87.2743 27.4006C86.8832 27.2183 86.5733 26.9548 86.3446 26.6101C86.1193 26.2654 86.0066 25.8428 86.0066 25.3423C86.0066 24.9115 86.0894 24.5568 86.2551 24.2784C86.4209 24 86.6446 23.7796 86.9263 23.6172C87.208 23.4548 87.5229 23.3321 87.8709 23.2493C88.2189 23.1664 88.5736 23.1035 88.9348 23.0604C89.3922 23.0073 89.7634 22.9643 90.0485 22.9311C90.3335 22.8946 90.5407 22.8366 90.6699 22.7571C90.7992 22.6776 90.8638 22.5483 90.8638 22.3693V22.3345C90.8638 21.9003 90.7412 21.5639 90.4959 21.3253C90.254 21.0866 89.8927 20.9673 89.4121 20.9673C88.9116 20.9673 88.5172 21.0784 88.2289 21.3004C87.9438 21.5192 87.7466 21.7628 87.6373 22.0312L86.2402 21.7131C86.406 21.2491 86.6479 20.8745 86.9661 20.5895C87.2876 20.3011 87.6571 20.0923 88.0748 19.9631C88.4924 19.8305 88.9315 19.7642 89.3922 19.7642C89.6971 19.7642 90.0203 19.8007 90.3617 19.8736C90.7064 19.9432 91.0279 20.0724 91.3262 20.2614C91.6278 20.4503 91.8747 20.7204 92.0669 21.0717C92.2592 21.4197 92.3553 21.8722 92.3553 22.429V27.5H90.9036V26.456H90.8439C90.7478 26.6482 90.6036 26.8371 90.4114 27.0227C90.2192 27.2083 89.9722 27.3625 89.6706 27.4851C89.369 27.6077 89.0078 27.669 88.5868 27.669ZM88.91 26.4759C89.321 26.4759 89.6723 26.3946 89.964 26.2322C90.2589 26.0698 90.4827 25.8577 90.6351 25.5959C90.7909 25.3307 90.8688 25.0473 90.8688 24.7457V23.7614C90.8158 23.8144 90.713 23.8641 90.5605 23.9105C90.4114 23.9536 90.2407 23.9917 90.0485 24.0249C89.8562 24.0547 89.669 24.0829 89.4867 24.1094C89.3044 24.1326 89.1519 24.1525 89.0293 24.169C88.7409 24.2055 88.4775 24.2668 88.2388 24.353C88.0035 24.4392 87.8146 24.5634 87.6721 24.7259C87.5328 24.8849 87.4632 25.0971 87.4632 25.3622C87.4632 25.7301 87.5991 26.0085 87.8709 26.1974C88.1427 26.383 88.4891 26.4759 88.91 26.4759ZM95.8217 22.9659V27.5H94.3352V19.8636H95.7621V21.1065H95.8565C96.0322 20.7022 96.3073 20.3774 96.6818 20.1321C97.0597 19.8868 97.5353 19.7642 98.1087 19.7642C98.629 19.7642 99.0848 19.8736 99.4759 20.0923C99.867 20.3078 100.17 20.6293 100.386 21.0568C100.601 21.4844 100.709 22.013 100.709 22.6428V27.5H99.2223V22.8217C99.2223 22.2682 99.0781 21.8357 98.7898 21.5241C98.5014 21.2093 98.1054 21.0518 97.6016 21.0518C97.2569 21.0518 96.9503 21.1264 96.6818 21.2756C96.4167 21.4247 96.2062 21.6435 96.0504 21.9318C95.898 22.2169 95.8217 22.5616 95.8217 22.9659ZM105.919 27.6541C105.18 27.6541 104.544 27.4867 104.01 27.152C103.48 26.8139 103.072 26.3482 102.787 25.755C102.502 25.1617 102.359 24.4822 102.359 23.7166C102.359 22.9411 102.505 22.2566 102.797 21.6634C103.089 21.0668 103.5 20.6011 104.03 20.2663C104.56 19.9316 105.185 19.7642 105.904 19.7642C106.484 19.7642 107.001 19.8719 107.455 20.0874C107.909 20.2995 108.276 20.5978 108.554 20.9822C108.836 21.3667 109.003 21.8158 109.056 22.3295H107.609C107.53 21.9716 107.348 21.6634 107.062 21.4048C106.781 21.1463 106.403 21.017 105.929 21.017C105.515 21.017 105.152 21.1264 104.84 21.3452C104.532 21.5606 104.292 21.8688 104.119 22.2699C103.947 22.6676 103.861 23.1383 103.861 23.6818C103.861 24.2386 103.945 24.7192 104.114 25.1236C104.283 25.5279 104.522 25.8411 104.83 26.0632C105.142 26.2853 105.508 26.3963 105.929 26.3963C106.211 26.3963 106.466 26.3449 106.695 26.2422C106.927 26.1361 107.121 25.9853 107.276 25.7898C107.435 25.5942 107.546 25.3589 107.609 25.0838H109.056C109.003 25.5777 108.842 26.0185 108.574 26.4062C108.305 26.794 107.946 27.099 107.495 27.321C107.048 27.5431 106.522 27.6541 105.919 27.6541ZM113.937 27.6541C113.185 27.6541 112.537 27.4934 111.993 27.1719C111.453 26.8471 111.035 26.3913 110.74 25.8047C110.449 25.2147 110.303 24.5237 110.303 23.7315C110.303 22.9493 110.449 22.2599 110.74 21.6634C111.035 21.0668 111.446 20.6011 111.973 20.2663C112.503 19.9316 113.123 19.7642 113.833 19.7642C114.263 19.7642 114.681 19.8355 115.085 19.978C115.49 20.1205 115.853 20.3442 116.174 20.6491C116.496 20.9541 116.749 21.3501 116.935 21.8374C117.12 22.3213 117.213 22.9096 117.213 23.6023V24.1293H111.143V23.0156H115.757C115.757 22.6245 115.677 22.2782 115.518 21.9766C115.359 21.6716 115.135 21.4313 114.847 21.2557C114.562 21.08 114.227 20.9922 113.843 20.9922C113.425 20.9922 113.06 21.0949 112.749 21.3004C112.441 21.5026 112.202 21.7678 112.033 22.0959C111.867 22.4207 111.784 22.7737 111.784 23.1548V24.0249C111.784 24.5353 111.874 24.9695 112.053 25.3274C112.235 25.6854 112.489 25.9588 112.813 26.1477C113.138 26.3333 113.518 26.4261 113.952 26.4261C114.234 26.4261 114.49 26.3864 114.722 26.3068C114.954 26.224 115.155 26.1013 115.324 25.9389C115.493 25.7765 115.622 25.576 115.712 25.3374L117.119 25.5909C117.006 26.0052 116.804 26.3681 116.512 26.6797C116.224 26.9879 115.861 27.2282 115.423 27.4006C114.989 27.5696 114.494 27.6541 113.937 27.6541ZM122.568 30.3636V19.8636H124.019V21.1016H124.144C124.23 20.9425 124.354 20.7585 124.517 20.5497C124.679 20.3409 124.904 20.1586 125.193 20.0028C125.481 19.8438 125.862 19.7642 126.336 19.7642C126.953 19.7642 127.503 19.92 127.987 20.2315C128.471 20.5431 128.85 20.9922 129.125 21.5788C129.404 22.1655 129.543 22.8714 129.543 23.6967C129.543 24.522 129.405 25.2296 129.13 25.8196C128.855 26.4062 128.477 26.8587 127.997 27.1768C127.516 27.4917 126.968 27.6491 126.351 27.6491C125.887 27.6491 125.508 27.5713 125.213 27.4155C124.921 27.2597 124.692 27.0774 124.526 26.8686C124.361 26.6598 124.233 26.4742 124.144 26.3118H124.054V30.3636H122.568ZM124.024 23.6818C124.024 24.2187 124.102 24.6894 124.258 25.0938C124.414 25.4981 124.639 25.8146 124.934 26.0433C125.229 26.2687 125.59 26.3814 126.018 26.3814C126.462 26.3814 126.833 26.2637 127.132 26.0284C127.43 25.7898 127.655 25.4666 127.808 25.0589C127.963 24.6513 128.041 24.1922 128.041 23.6818C128.041 23.178 127.965 22.7256 127.813 22.3246C127.664 21.9235 127.438 21.607 127.137 21.375C126.838 21.143 126.465 21.027 126.018 21.027C125.587 21.027 125.222 21.138 124.924 21.3601C124.629 21.5821 124.405 21.892 124.253 22.2898C124.101 22.6875 124.024 23.1515 124.024 23.6818ZM134.425 27.6541C133.709 27.6541 133.084 27.4901 132.551 27.1619C132.017 26.8338 131.603 26.3748 131.308 25.7848C131.013 25.1948 130.865 24.5054 130.865 23.7166C130.865 22.9245 131.013 22.2318 131.308 21.6385C131.603 21.0452 132.017 20.5845 132.551 20.2564C133.084 19.9283 133.709 19.7642 134.425 19.7642C135.141 19.7642 135.766 19.9283 136.299 20.2564C136.833 20.5845 137.247 21.0452 137.542 21.6385C137.837 22.2318 137.985 22.9245 137.985 23.7166C137.985 24.5054 137.837 25.1948 137.542 25.7848C137.247 26.3748 136.833 26.8338 136.299 27.1619C135.766 27.4901 135.141 27.6541 134.425 27.6541ZM134.43 26.4062C134.894 26.4062 135.278 26.2836 135.583 26.0384C135.888 25.7931 136.114 25.4666 136.259 25.0589C136.409 24.6513 136.483 24.2022 136.483 23.7116C136.483 23.2244 136.409 22.777 136.259 22.3693C136.114 21.9583 135.888 21.6286 135.583 21.38C135.278 21.1314 134.894 21.0071 134.43 21.0071C133.963 21.0071 133.575 21.1314 133.267 21.38C132.962 21.6286 132.735 21.9583 132.585 22.3693C132.44 22.777 132.367 23.2244 132.367 23.7116C132.367 24.2022 132.44 24.6513 132.585 25.0589C132.735 25.4666 132.962 25.7931 133.267 26.0384C133.575 26.2836 133.963 26.4062 134.43 26.4062ZM139.644 27.5V19.8636H141.081V21.0767H141.16C141.299 20.6657 141.545 20.3426 141.896 20.1072C142.251 19.8686 142.652 19.7493 143.099 19.7493C143.192 19.7493 143.301 19.7526 143.427 19.7592C143.556 19.7659 143.658 19.7741 143.73 19.7841V21.206C143.671 21.1894 143.565 21.1712 143.412 21.1513C143.26 21.1281 143.107 21.1165 142.955 21.1165C142.604 21.1165 142.29 21.1911 142.015 21.3402C141.743 21.486 141.528 21.6899 141.369 21.9517C141.21 22.2102 141.13 22.5052 141.13 22.8366V27.5H139.644ZM149.033 19.8636V21.0568H144.862V19.8636H149.033ZM145.98 18.0341H147.467V25.2578C147.467 25.5462 147.51 25.7633 147.596 25.9091C147.682 26.0516 147.793 26.1494 147.929 26.2024C148.068 26.2521 148.219 26.277 148.381 26.277C148.501 26.277 148.605 26.2687 148.695 26.2521C148.784 26.2356 148.854 26.2223 148.903 26.2124L149.172 27.4403C149.086 27.4735 148.963 27.5066 148.804 27.5398C148.645 27.5762 148.446 27.5961 148.207 27.5994C147.816 27.6061 147.452 27.5365 147.114 27.3906C146.776 27.2448 146.502 27.0194 146.293 26.7145C146.085 26.4096 145.98 26.0268 145.98 25.5661V18.0341ZM154.311 19.8636V21.0568H149.996V19.8636H154.311ZM151.179 27.5V18.9787C151.179 18.5014 151.284 18.1053 151.492 17.7905C151.701 17.4723 151.978 17.2353 152.323 17.0795C152.667 16.9205 153.042 16.8409 153.446 16.8409C153.744 16.8409 154 16.8658 154.212 16.9155C154.424 16.9619 154.581 17.005 154.684 17.0447L154.336 18.2479C154.267 18.228 154.177 18.2048 154.068 18.1783C153.958 18.1484 153.826 18.1335 153.67 18.1335C153.309 18.1335 153.05 18.223 152.894 18.402C152.742 18.581 152.666 18.8395 152.666 19.1776V27.5H151.179ZM158.761 27.6541C158.045 27.6541 157.42 27.4901 156.887 27.1619C156.353 26.8338 155.939 26.3748 155.644 25.7848C155.349 25.1948 155.201 24.5054 155.201 23.7166C155.201 22.9245 155.349 22.2318 155.644 21.6385C155.939 21.0452 156.353 20.5845 156.887 20.2564C157.42 19.9283 158.045 19.7642 158.761 19.7642C159.477 19.7642 160.102 19.9283 160.635 20.2564C161.169 20.5845 161.583 21.0452 161.878 21.6385C162.173 22.2318 162.32 22.9245 162.32 23.7166C162.32 24.5054 162.173 25.1948 161.878 25.7848C161.583 26.3748 161.169 26.8338 160.635 27.1619C160.102 27.4901 159.477 27.6541 158.761 27.6541ZM158.766 26.4062C159.23 26.4062 159.614 26.2836 159.919 26.0384C160.224 25.7931 160.45 25.4666 160.595 25.0589C160.744 24.6513 160.819 24.2022 160.819 23.7116C160.819 23.2244 160.744 22.777 160.595 22.3693C160.45 21.9583 160.224 21.6286 159.919 21.38C159.614 21.1314 159.23 21.0071 158.766 21.0071C158.298 21.0071 157.911 21.1314 157.602 21.38C157.298 21.6286 157.07 21.9583 156.921 22.3693C156.776 22.777 156.703 23.2244 156.703 23.7116C156.703 24.2022 156.776 24.6513 156.921 25.0589C157.07 25.4666 157.298 25.7931 157.602 26.0384C157.911 26.2836 158.298 26.4062 158.766 26.4062ZM165.466 17.3182V27.5H163.98V17.3182H165.466ZM167.466 27.5V19.8636H168.953V27.5H167.466ZM168.217 18.6854C167.958 18.6854 167.736 18.5992 167.551 18.4268C167.368 18.2512 167.277 18.0424 167.277 17.8004C167.277 17.5552 167.368 17.3464 167.551 17.174C167.736 16.9983 167.958 16.9105 168.217 16.9105C168.475 16.9105 168.696 16.9983 168.878 17.174C169.064 17.3464 169.156 17.5552 169.156 17.8004C169.156 18.0424 169.064 18.2512 168.878 18.4268C168.696 18.5992 168.475 18.6854 168.217 18.6854ZM174.169 27.6541C173.453 27.6541 172.828 27.4901 172.295 27.1619C171.761 26.8338 171.347 26.3748 171.052 25.7848C170.757 25.1948 170.609 24.5054 170.609 23.7166C170.609 22.9245 170.757 22.2318 171.052 21.6385C171.347 21.0452 171.761 20.5845 172.295 20.2564C172.828 19.9283 173.453 19.7642 174.169 19.7642C174.885 19.7642 175.51 19.9283 176.043 20.2564C176.577 20.5845 176.991 21.0452 177.286 21.6385C177.581 22.2318 177.729 22.9245 177.729 23.7166C177.729 24.5054 177.581 25.1948 177.286 25.7848C176.991 26.3748 176.577 26.8338 176.043 27.1619C175.51 27.4901 174.885 27.6541 174.169 27.6541ZM174.174 26.4062C174.638 26.4062 175.022 26.2836 175.327 26.0384C175.632 25.7931 175.858 25.4666 176.004 25.0589C176.153 24.6513 176.227 24.2022 176.227 23.7116C176.227 23.2244 176.153 22.777 176.004 22.3693C175.858 21.9583 175.632 21.6286 175.327 21.38C175.022 21.1314 174.638 21.0071 174.174 21.0071C173.707 21.0071 173.319 21.1314 173.011 21.38C172.706 21.6286 172.479 21.9583 172.33 22.3693C172.184 22.777 172.111 23.2244 172.111 23.7116C172.111 24.2022 172.184 24.6513 172.33 25.0589C172.479 25.4666 172.706 25.7931 173.011 26.0384C173.319 26.2836 173.707 26.4062 174.174 26.4062Z" fill="white"/>
</svg>
