<svg xmlns="http://www.w3.org/2000/svg" width="27" height="28" viewBox="0 0 27 28">
  <g id="Group_5" data-name="Group 5" transform="translate(11782 -221)">
    <path id="Path_11875" data-name="Path 11875" d="M13,30A11,11,0,0,1,13,8a1,1,0,0,1,1,1v9h9a1,1,0,0,1,1,1A11,11,0,0,1,13,30Z" transform="translate(-11784 219)" fill="#2457ff"/>
    <path id="Path_11876" data-name="Path 11876" d="M28,14H19a2,2,0,0,1-2-2V3a1,1,0,0,1,1-1A11,11,0,0,1,29,13a1,1,0,0,1-1,1Z" transform="translate(-11784 219)" fill="#dbe5ff"/>
  </g>
</svg>
